<?xml version="1.0" standalone="no"?>
<!DOCTYPE svg PUBLIC "-//W3C//DTD SVG 20010904//EN"
 "http://www.w3.org/TR/2001/REC-SVG-20010904/DTD/svg10.dtd">
<svg version="1.0" xmlns="http://www.w3.org/2000/svg"
 width="512.000000pt" height="512.000000pt" viewBox="0 0 512.000000 512.000000"
 preserveAspectRatio="xMidYMid meet">
<metadata>
Created by potrace 1.14, written by Peter Selinger 2001-2017
</metadata>
<g transform="translate(0.000000,512.000000) scale(0.100000,-0.100000)"
fill="#000000" stroke="none">
<path d="M2500 5057 c-3 -3 -50 -8 -105 -11 -157 -11 -159 -11 -170 -17 -5 -3
-22 -5 -37 -4 -16 1 -28 -1 -28 -4 0 -3 -10 -6 -22 -7 -13 0 -41 -4 -63 -8
-22 -5 -50 -9 -62 -9 -13 -1 -23 -5 -23 -11 0 -5 -3 -7 -6 -3 -3 3 -18 1 -33
-5 -14 -6 -35 -11 -46 -13 -11 -1 -27 -5 -35 -8 -8 -3 -37 -13 -64 -22 -27 -9
-53 -18 -58 -21 -5 -3 21 -35 57 -70 62 -63 71 -81 50 -96 -5 -4 0 -6 12 -5
17 1 19 4 11 14 -6 7 -6 13 -1 13 5 0 16 -11 23 -25 7 -14 17 -25 22 -25 4 0
8 -5 8 -11 0 -5 -5 -7 -11 -3 -8 4 -8 0 0 -15 7 -11 8 -21 2 -21 -12 0 -23 29
-14 42 3 7 1 8 -5 4 -7 -4 -10 -2 -9 6 2 7 2 10 0 5 -3 -4 -10 -4 -16 0 -7 4
-7 1 1 -9 8 -10 9 -19 3 -22 -5 -4 -12 3 -16 14 -7 23 -20 26 -31 8 -4 -7 -4
-10 1 -6 5 5 14 -1 22 -12 9 -12 20 -17 31 -13 9 3 14 2 10 -2 -5 -5 4 -16 20
-25 17 -11 29 -13 34 -7 12 20 36 15 47 -9 6 -15 7 -24 1 -24 -6 0 -10 8 -10
18 0 13 -2 14 -9 3 -5 -7 -11 -9 -13 -5 -3 5 -3 3 -2 -3 4 -17 0 -16 -49 8
-28 15 -38 17 -30 7 7 -8 9 -19 5 -23 -4 -5 -1 -5 6 -1 14 8 72 -14 72 -27 0
-5 -4 -5 -10 -2 -6 4 -7 -1 -3 -11 5 -15 7 -15 15 0 5 9 6 21 2 27 -4 7 0 9
14 5 11 -4 23 -2 27 5 5 7 13 2 24 -15 10 -14 21 -23 26 -19 4 5 5 3 1 -4 -3
-6 2 -16 11 -22 10 -5 15 -13 11 -17 -9 -9 -64 47 -60 61 1 6 -4 2 -11 -7 -8
-10 -17 -15 -20 -12 -3 3 -10 -5 -17 -18 -9 -19 -9 -21 2 -8 12 14 48 26 48
16 0 -2 -15 -13 -32 -25 -18 -11 -28 -21 -23 -21 6 1 19 7 29 15 19 14 36 12
36 -5 0 -5 -8 -7 -17 -4 -11 4 -14 3 -7 -3 6 -4 13 -16 17 -25 3 -10 12 -18
19 -17 10 0 10 2 1 6 -7 2 -13 12 -13 21 0 15 2 15 11 2 8 -12 9 -10 4 8 -6
21 -5 22 14 10 12 -7 21 -16 21 -21 0 -4 -4 -5 -10 -2 -5 3 -10 1 -10 -5 0 -7
7 -9 16 -6 10 4 14 2 11 -6 -2 -7 -10 -12 -16 -10 -7 1 -10 -2 -7 -7 4 -5 0
-12 -6 -14 -8 -4 -9 -6 -2 -6 6 -1 17 6 24 14 7 8 17 15 23 15 5 0 2 -8 -7
-19 -15 -16 -15 -19 -2 -24 10 -4 13 -13 10 -24 -5 -15 -4 -15 5 -3 6 9 7 18
1 24 -6 6 -10 15 -10 20 1 6 9 1 19 -11 22 -27 91 -38 75 -11 -5 7 -3 8 5 4 7
-5 10 -10 7 -13 -6 -7 47 -58 69 -67 10 -3 15 -9 12 -13 -4 -3 8 -17 25 -30
18 -12 28 -23 22 -23 -5 0 -1 -7 9 -15 13 -9 17 -20 12 -34 -4 -13 -2 -21 5
-21 6 0 9 4 6 8 -2 4 -1 14 5 22 7 12 9 10 9 -7 0 -13 5 -23 10 -23 6 0 12 0
15 0 2 -1 20 -17 40 -36 35 -36 44 -54 25 -54 -5 0 -10 6 -10 14 0 8 -9 18
-20 21 -11 4 -17 11 -14 17 5 7 2 8 -6 3 -9 -6 -11 -4 -6 6 4 8 0 5 -8 -5 -9
-11 -19 -17 -22 -13 -4 4 -2 13 4 20 11 13 -3 14 -60 8 -5 -1 -8 -5 -8 -10 0
-5 12 -8 26 -5 14 3 23 1 20 -5 -8 -12 20 -22 41 -14 11 4 14 3 9 -5 -4 -7 -2
-10 7 -6 8 3 14 -2 14 -11 0 -18 -2 -18 -30 -3 -20 10 -21 10 -8 -5 7 -10 20
-17 27 -17 8 0 14 -5 14 -11 0 -5 -4 -7 -10 -4 -6 4 -7 -1 -3 -11 5 -15 7 -15
15 0 5 9 6 21 3 26 -7 12 5 13 23 1 10 -6 10 -10 -3 -21 -16 -13 -21 -40 -7
-40 4 0 14 6 21 13 11 10 12 7 7 -13 -6 -23 -6 -23 7 -8 8 10 17 15 20 11 4
-3 2 -11 -3 -18 -6 -8 -5 -18 6 -31 14 -18 15 -18 4 4 -9 19 -7 24 15 34 14 6
25 15 25 20 0 5 4 7 9 4 5 -3 7 -20 5 -38 -3 -22 -1 -28 5 -19 5 8 7 20 4 28
-3 7 0 13 6 13 6 0 11 -4 11 -10 0 -5 5 -10 11 -10 8 0 8 5 -1 15 -10 12 -9
16 4 21 9 3 13 10 10 15 -3 5 -1 9 5 9 5 0 11 -3 14 -7 2 -5 2 -2 1 4 -2 7 3
16 11 20 11 7 11 11 -1 27 -8 11 -14 14 -14 7 0 -7 -4 -9 -10 -6 -10 6 36 55
51 55 18 0 8 -18 -12 -23 l-21 -6 21 -28 c21 -25 21 -28 5 -33 -16 -6 -16 -7
2 -12 28 -7 28 20 1 50 -11 12 -16 22 -10 22 6 0 16 -7 23 -15 7 -8 16 -13 20
-10 5 3 11 -1 13 -7 3 -8 6 -6 6 5 1 11 -5 17 -15 15 -10 -2 -19 3 -21 10 -3
7 1 10 11 6 10 -4 18 0 22 10 3 9 10 13 15 10 5 -3 6 3 2 13 -6 16 -5 16 10 4
14 -11 17 -11 18 0 1 8 1 18 0 22 -1 4 4 7 11 6 33 -4 39 0 26 21 -7 11 -19
22 -27 25 -10 4 -9 0 4 -15 10 -11 16 -22 13 -25 -3 -3 -12 3 -21 13 -17 18
-13 67 4 56 5 -3 7 -10 4 -15 -4 -5 -1 -9 4 -9 6 0 11 11 11 23 0 15 14 37 37
57 22 21 34 27 30 16 -4 -10 -7 -20 -7 -22 0 -3 -4 -3 -9 0 -5 3 -8 -2 -7 -12
0 -9 -6 -17 -14 -16 -10 1 -15 -8 -14 -28 2 -46 4 -52 11 -45 3 4 13 1 22 -6
14 -10 14 -10 4 4 -9 11 -10 18 -1 27 8 8 8 15 -3 28 -12 15 -12 16 6 11 11
-4 27 -2 35 3 8 5 11 10 5 10 -5 0 -3 4 5 10 9 6 17 5 22 -3 4 -6 10 -8 15 -4
11 12 -15 24 -43 21 -21 -2 -24 1 -18 18 3 11 7 27 8 34 1 7 6 17 11 21 4 4 5
2 1 -4 -4 -7 -3 -13 2 -13 5 0 14 11 20 25 6 14 17 24 24 23 7 -2 12 3 10 10
-1 8 2 11 9 6 9 -5 10 -2 6 10 -4 9 -3 14 2 11 5 -3 12 -1 16 5 10 16 21 11
22 -11 2 -18 0 -19 -15 -8 -9 8 -14 10 -10 5 11 -13 -28 -49 -44 -40 -7 4 -10
4 -6 -1 4 -4 0 -14 -8 -22 -10 -11 -12 -19 -4 -27 5 -7 6 -17 2 -21 -4 -5 -1
-5 6 -1 6 4 12 2 12 -4 0 -6 5 -8 10 -5 6 3 10 11 10 16 0 6 -4 8 -9 5 -5 -3
-15 2 -22 11 -12 14 -11 15 9 9 14 -5 22 -3 22 4 0 6 -4 8 -10 5 -5 -3 -10 -2
-10 2 0 5 9 14 21 21 19 12 20 11 14 -10 -4 -16 -3 -19 3 -9 8 10 13 8 27 -10
10 -14 15 -17 12 -7 -3 9 -1 19 6 22 7 3 3 4 -7 3 -10 -1 -21 4 -23 11 -3 6 1
10 9 9 7 -2 9 -2 5 1 -5 2 -1 13 9 23 12 14 13 19 4 19 -7 0 -10 3 -7 7 4 3 2
12 -4 19 -8 10 -6 12 10 11 14 -1 20 -6 16 -15 -2 -7 0 -10 5 -7 13 8 13 2 -2
-30 -9 -20 -9 -28 2 -38 10 -9 11 -9 6 1 -8 14 14 72 27 72 5 0 5 -4 2 -10 -4
-6 1 -7 11 -3 15 5 15 7 0 15 -9 5 -21 6 -28 2 -8 -5 -9 -2 -5 11 4 9 2 24 -4
31 -11 14 -1 20 25 15 5 -1 6 5 2 14 -3 10 1 18 13 23 24 9 72 67 64 76 -4 4
1 4 12 0 11 -4 17 -3 12 1 -9 11 21 45 40 45 8 0 11 5 8 10 -3 6 2 10 11 10
10 0 15 3 12 6 -4 3 23 35 59 72 l65 67 -33 9 c-19 6 -36 12 -39 16 -3 3 -12
5 -20 5 -8 -1 -19 1 -25 4 -5 3 -13 6 -17 7 -5 1 -9 2 -10 4 -3 2 -18 6 -56
14 -13 3 -32 8 -42 11 -33 10 -65 17 -87 18 -13 1 -23 3 -23 7 0 3 -10 6 -22
6 -13 1 -41 4 -63 8 -73 11 -169 19 -242 20 -40 1 -73 3 -73 6 0 8 -94 5 -107
-3 -6 -4 -13 -2 -15 4 -2 5 -6 8 -8 6z m-554 -356 c-4 -5 -1 -11 6 -13 6 -2 8
-10 4 -16 -12 -20 -23 -14 -21 11 3 26 3 27 11 27 3 0 3 -4 0 -9z m104 -141
c0 -5 -2 -10 -4 -10 -3 0 -8 5 -11 10 -3 6 -1 10 4 10 6 0 11 -4 11 -10z
m1010 0 c0 -5 -7 -7 -15 -4 -8 4 -15 8 -15 10 0 2 7 4 15 4 8 0 15 -4 15 -10z
m-954 -18 c-3 -5 6 -15 19 -22 13 -7 22 -16 20 -20 -3 -4 6 -15 20 -24 14 -9
25 -24 24 -34 0 -10 -3 -12 -6 -4 -2 6 -9 9 -15 6 -5 -3 -18 3 -29 15 -11 12
-17 21 -14 21 4 0 -3 12 -14 26 -18 23 -20 44 -5 44 3 0 3 -4 0 -8z m787 -189
c-3 -7 -9 -13 -14 -13 -5 0 -9 6 -9 13 0 8 6 14 14 14 8 0 12 -6 9 -14z m-40
-48 c-5 -13 -23 -22 -23 -11 0 15 14 35 21 31 4 -3 6 -12 2 -20z m-77 -53 c1
-12 -3 -22 -8 -22 -6 0 -7 7 -4 16 3 8 2 12 -4 9 -6 -3 -10 1 -10 10 0 25 25
12 26 -13z m-31 -2 c5 -8 -8 -44 -21 -59 -3 -3 -10 4 -18 14 -11 15 -11 21 3
36 19 20 28 23 36 9z m-95 -104 c0 4 3 5 6 1 10 -9 -54 -69 -66 -62 -15 9 -12
25 4 19 8 -3 19 3 26 15 7 14 7 21 0 21 -5 0 -10 -7 -10 -15 0 -8 -5 -15 -11
-15 -6 0 -8 8 -5 18 5 15 4 15 -7 2 -15 -19 -37 -24 -37 -9 0 8 -4 8 -13 0
-10 -8 -18 -7 -32 3 -12 9 -15 15 -7 20 7 4 12 2 12 -3 0 -6 7 -11 15 -11 8 0
15 6 15 13 0 8 4 7 10 -3 7 -10 12 -12 18 -4 4 6 15 10 25 8 9 -1 17 2 17 7 0
6 8 5 20 -1 11 -6 20 -8 20 -4z m-102 -40 c25 2 28 -8 7 -26 -11 -9 -19 -8
-36 4 -17 11 -26 13 -36 4 -16 -13 -17 4 -1 20 6 6 18 8 27 3 9 -4 26 -6 39
-5z"/>
<path d="M2721 4236 c-9 -11 -9 -16 1 -22 7 -4 10 -4 6 1 -4 4 -3 14 3 22 6 7
9 13 6 13 -2 0 -10 -6 -16 -14z"/>
<path d="M227 4898 c-15 -8 -16 -12 -5 -26 7 -9 8 -13 2 -9 -8 5 -11 -13 -8
-63 2 -49 -1 -68 -8 -64 -7 5 -8 2 -3 -5 9 -16 12 -221 3 -215 -4 3 -5 -1 -3
-8 11 -28 11 -88 1 -92 -6 -2 -5 -5 3 -5 10 -1 11 -4 2 -15 -9 -10 -9 -16 -1
-21 8 -5 8 -10 0 -20 -8 -9 -8 -15 0 -20 5 -3 10 -11 10 -16 0 -6 -5 -7 -10
-4 -15 9 -12 0 9 -23 10 -12 21 -19 25 -15 3 3 6 1 6 -5 0 -5 -6 -13 -12 -15
-8 -3 -5 -6 6 -6 21 -1 106 -82 106 -101 0 -7 7 -10 17 -6 10 4 15 4 11 1 -3
-4 10 -22 30 -41 34 -32 52 -84 30 -84 -4 0 -8 4 -8 9 0 5 -3 17 -7 27 -5 13
-3 15 7 9 9 -5 11 -4 6 3 -5 9 -13 9 -26 2 -12 -6 -21 -7 -25 0 -7 11 -35 2
-35 -12 0 -6 6 -5 15 2 21 17 19 1 -2 -24 -18 -21 -18 -21 3 -3 29 24 38 21
20 -5 -9 -12 -16 -27 -16 -33 0 -5 9 5 20 23 20 32 37 44 27 18 -6 -16 16 -28
37 -20 20 8 15 -26 -7 -50 -20 -23 -2 -43 22 -23 12 10 14 9 7 -8 -4 -11 -3
-16 1 -11 4 4 9 20 9 34 3 48 4 52 13 52 10 0 8 -70 -2 -87 -12 -19 4 -15 20
5 14 16 14 16 9 0 -7 -24 6 -23 21 2 11 17 10 18 -5 13 -14 -5 -15 -3 -5 7 11
12 16 10 33 -8 23 -24 27 -40 7 -23 -17 13 -28 5 -20 -15 4 -10 0 -13 -13 -8
-18 5 -18 5 -1 -6 9 -6 15 -16 11 -21 -12 -20 17 -38 57 -35 26 2 38 -1 36 -8
-2 -6 -12 -10 -22 -8 -16 3 -17 2 -2 -12 17 -17 32 -22 22 -7 -3 6 2 14 10 19
13 7 14 11 3 19 -7 6 -17 12 -23 13 -5 1 -9 7 -9 14 1 8 -8 12 -25 10 -21 -2
-27 1 -28 17 -2 17 1 18 13 8 8 -6 17 -9 21 -5 3 3 1 6 -6 6 -7 0 -9 5 -6 10
3 6 18 -5 33 -22 15 -18 33 -40 41 -50 8 -9 19 -14 25 -11 6 3 8 3 4 -2 -7 -7
19 -40 33 -40 4 0 11 -4 16 -9 5 -5 3 -6 -4 -2 -8 4 -13 1 -13 -9 0 -9 -5 -13
-10 -10 -6 4 -7 11 -4 17 4 6 2 8 -4 4 -6 -3 -13 2 -16 12 -6 18 -36 27 -36
10 0 -4 7 -8 15 -8 21 0 19 -13 -4 -34 -25 -23 -17 -50 10 -35 10 5 19 15 18
22 0 9 -2 9 -6 0 -2 -7 -12 -13 -20 -13 -14 0 -13 3 3 21 17 19 19 19 30 4 10
-13 17 -14 33 -5 17 9 22 8 27 -5 3 -8 10 -12 15 -9 5 3 6 -3 2 -12 -4 -11 -3
-15 5 -10 6 3 14 0 19 -7 4 -8 17 -19 28 -25 11 -6 15 -12 8 -12 -23 0 -83 42
-76 53 4 7 -1 6 -10 -2 -20 -16 -23 -2 -4 19 6 8 3 7 -9 -3 -11 -9 -24 -14
-27 -10 -4 3 -7 1 -7 -5 0 -7 7 -12 16 -12 8 0 12 -5 9 -10 -4 -6 -11 -7 -17
-4 -7 5 -8 2 -4 -5 6 -9 12 -9 25 3 10 9 21 13 24 9 11 -10 8 -45 -3 -38 -6 4
-7 11 -4 17 4 7 2 8 -4 4 -16 -10 -2 -38 15 -32 8 3 16 6 19 6 2 0 1 7 -2 15
-5 11 -2 13 10 9 9 -3 13 -11 9 -17 -3 -6 -1 -7 5 -3 7 4 12 3 12 -3 0 -6 7
-8 15 -5 8 4 27 -6 44 -24 17 -16 33 -27 36 -23 4 3 5 -1 3 -9 -2 -8 2 -14 8
-13 15 3 36 -44 24 -52 -9 -6 -14 8 -11 27 0 4 -7 4 -16 1 -12 -5 -14 -3 -8 7
5 9 4 11 -3 6 -17 -10 -15 -26 4 -26 18 0 14 -22 -6 -28 -7 -3 -10 0 -6 7 4 6
3 11 -1 11 -14 0 -34 -38 -23 -45 6 -4 9 -1 8 7 -2 7 3 12 11 10 7 -1 19 3 27
9 17 14 19 -2 2 -19 -9 -9 -9 -12 0 -12 7 0 12 5 12 11 0 5 5 7 10 4 6 -4 8
-11 5 -16 -4 -5 -1 -9 4 -9 10 0 15 14 12 34 -1 5 5 6 14 2 9 -3 20 -6 25 -6
5 0 11 -9 15 -19 3 -11 15 -23 26 -26 10 -4 19 -13 19 -21 0 -8 4 -12 10 -9 5
3 10 1 10 -4 0 -18 -17 -12 -33 12 -14 21 -15 21 -34 5 -21 -20 -33 -23 -33
-10 0 5 9 13 20 18 18 8 19 11 7 28 -17 23 -40 12 -32 -14 3 -10 1 -21 -5 -25
-7 -5 -5 -11 6 -20 15 -11 20 -9 35 9 10 11 21 17 26 13 4 -5 0 -13 -10 -18
-23 -13 -22 -32 4 -60 11 -13 18 -19 15 -12 -4 6 -3 13 1 16 5 2 2 2 -4 1 -7
-2 -13 0 -13 5 0 16 13 20 32 10 16 -8 17 -13 7 -25 -10 -12 -9 -17 1 -27 10
-10 12 -9 7 5 -7 21 9 34 16 14 3 -8 4 -25 1 -38 -4 -22 -4 -22 7 2 11 23 12
24 16 5 5 -21 61 -85 75 -85 4 0 8 5 8 11 0 5 -4 7 -10 4 -5 -3 -10 -2 -10 4
0 5 3 11 7 14 5 2 2 2 -6 0 -15 -4 -41 14 -41 29 0 6 6 6 14 -1 8 -6 18 -11
22 -10 34 6 42 -2 40 -40 0 -22 -4 -43 -8 -47 -5 -4 -8 -12 -8 -18 0 -5 7 -1
16 10 13 16 15 16 10 2 -3 -10 -1 -18 4 -18 6 0 10 7 10 15 0 8 3 15 6 15 13
0 44 -22 44 -31 0 -6 -6 -6 -19 0 -14 8 -20 7 -24 -3 -4 -10 0 -12 14 -9 11 3
19 0 19 -6 0 -7 -5 -9 -12 -5 -6 4 -8 3 -5 -3 3 -5 26 -8 51 -7 36 2 45 -1 49
-16 3 -11 -2 -25 -10 -32 -14 -11 -15 -10 -10 12 4 14 4 19 1 13 -3 -7 -10
-13 -15 -13 -6 0 -7 5 -4 10 3 6 1 10 -4 10 -17 0 -13 -9 16 -44 15 -17 24
-23 20 -14 -3 9 1 22 8 28 8 7 12 16 9 21 -9 15 5 10 24 -9 19 -19 18 -47 0
-36 -7 5 -8 2 -3 -6 6 -10 4 -12 -8 -7 -15 6 -34 -20 -22 -31 3 -3 5 0 5 6 0
14 36 16 44 3 6 -9 -18 -34 -25 -26 -3 2 -5 -5 -5 -16 0 -18 2 -19 12 -4 13
17 31 17 52 -2 19 -18 27 -16 41 10 11 21 11 21 6 -5 -3 -16 1 -32 10 -42 17
-16 20 -30 6 -21 -6 3 -9 -3 -8 -14 0 -11 4 -18 8 -15 4 2 9 1 12 -3 2 -5 2
-2 1 5 -5 19 7 43 19 35 6 -3 7 -1 3 6 -4 6 -11 9 -16 6 -16 -10 -32 23 -21
42 8 12 11 13 9 3 -3 -14 47 -72 55 -64 2 2 10 -7 17 -21 7 -14 17 -25 22 -25
5 0 6 -4 3 -10 -3 -5 1 -10 10 -10 9 0 13 -5 10 -10 -4 -7 -13 -6 -26 1 -12 6
-18 13 -15 16 3 3 1 14 -5 24 -15 30 -47 4 -46 -37 1 -28 4 -31 17 -21 25 19
26 20 8 14 -14 -5 -17 -2 -15 13 2 11 9 26 16 33 11 10 12 8 7 -9 -5 -15 -1
-24 11 -29 16 -6 16 -8 -6 -26 -13 -10 -19 -19 -13 -19 5 0 15 7 22 15 7 8 16
15 21 15 5 0 9 -7 9 -15 0 -8 4 -15 10 -15 5 0 7 7 4 15 -4 8 -1 15 6 15 6 0
8 -4 5 -10 -3 -6 -1 -10 6 -10 7 0 9 -3 6 -6 -10 -11 13 -45 25 -38 6 4 8 3 4
-4 -3 -6 -2 -13 2 -16 5 -3 8 -17 7 -31 -2 -15 3 -29 13 -35 16 -9 16 -9 1
-10 -9 0 -20 -7 -23 -16 -3 -8 -2 -12 4 -9 6 3 10 1 10 -5 0 -6 4 -8 10 -5 6
4 11 -9 11 -32 3 -65 4 -71 11 -79 4 -4 3 -13 -3 -21 -9 -10 -8 -17 2 -30 10
-11 10 -14 2 -9 -9 5 -13 0 -14 -13 -2 -29 -3 -34 -12 -49 -5 -7 -3 -12 4 -12
8 0 9 -3 0 -13 -6 -8 -8 -17 -4 -20 3 -4 1 -7 -5 -7 -7 0 -12 -7 -12 -15 0 -9
-7 -27 -16 -40 -9 -14 -13 -25 -10 -25 4 0 -3 -10 -14 -22 -12 -13 -28 -34
-35 -49 -7 -14 -25 -34 -39 -44 -14 -11 -26 -26 -26 -34 0 -8 -2 -12 -5 -9 -3
2 -185 -175 -406 -394 -221 -219 -405 -398 -410 -398 -5 0 -9 -4 -9 -8 0 -8
-170 -181 -301 -308 -35 -34 -94 -93 -131 -132 -36 -39 -69 -68 -72 -64 -3 3
-6 -1 -7 -9 0 -8 -2 -27 -3 -44 -2 -16 2 -36 8 -44 8 -11 8 -13 -1 -7 -17 10
-17 -16 0 -33 7 -9 8 -12 0 -7 -8 4 -11 -10 -9 -49 1 -32 -3 -55 -9 -55 -5 0
-4 -4 4 -9 9 -6 10 -11 2 -15 -6 -4 -8 -12 -4 -19 8 -14 7 -202 -2 -216 -3 -6
-2 -11 4 -11 5 0 7 -12 5 -27 -9 -46 2 -68 33 -68 15 0 33 3 39 7 6 4 14 4 18
0 12 -11 77 -11 69 1 -4 6 -1 7 8 1 22 -14 130 -14 122 -1 -4 7 1 5 12 -3 19
-16 21 -15 42 2 10 8 13 6 13 -5 0 -11 -7 -15 -20 -12 -11 2 -18 0 -15 -4 2
-5 -3 -15 -12 -22 -14 -12 -15 -11 -9 11 4 14 4 21 -1 15 -4 -5 -12 -11 -18
-12 -5 -1 -19 -5 -29 -9 -15 -6 -17 -4 -11 6 5 9 4 11 -3 6 -7 -4 -12 -1 -12
6 0 10 -2 10 -9 -1 -5 -8 -14 -10 -21 -6 -8 5 -11 4 -7 -2 4 -6 0 -14 -9 -17
-12 -5 -14 -1 -10 17 3 12 3 16 0 9 -5 -10 -9 -10 -22 0 -9 7 -13 8 -9 2 4 -7
-1 -18 -10 -25 -14 -12 -15 -11 -8 11 7 24 7 24 -9 5 l-15 -20 -1 20 c-1 11
-4 14 -7 7 -2 -6 -10 -9 -15 -6 -6 4 -8 2 -5 -3 10 -17 -24 -25 -41 -11 -13
12 -14 11 -2 -9 8 -12 18 -19 22 -17 8 5 12 -10 8 -35 -1 -9 5 -12 20 -8 13 3
23 0 26 -8 4 -10 10 -9 25 6 19 19 20 19 41 -1 12 -11 25 -20 28 -20 14 0 19
13 10 30 -7 14 -4 17 20 17 19 0 26 -4 23 -14 -3 -7 -10 -10 -16 -6 -6 4 -7 1
-3 -6 5 -7 10 -10 13 -7 3 3 14 1 24 -5 11 -5 19 -6 18 -2 -3 20 2 34 11 28 6
-4 7 1 3 12 -4 11 7 5 28 -15 27 -28 35 -31 44 -19 5 8 21 12 35 10 17 -2 21
0 11 6 -9 6 -10 11 -3 15 6 4 16 -2 21 -13 9 -16 7 -21 -7 -24 -9 -3 -3 -4 13
-3 21 2 30 8 30 21 0 10 6 20 13 23 7 2 12 0 11 -5 -3 -20 2 -34 11 -28 5 3
10 1 10 -4 0 -6 6 -11 13 -11 6 1 1 10 -12 20 -17 15 -19 20 -8 20 9 0 19 -5
22 -10 5 -8 11 -7 21 1 12 10 18 8 29 -7 13 -16 14 -16 9 -2 -4 11 0 20 9 24
10 3 14 14 11 29 -3 17 0 22 14 21 9 0 17 6 17 14 0 17 15 31 27 24 4 -3 8
-10 8 -15 0 -6 -4 -8 -8 -5 -4 2 -9 -5 -9 -16 -2 -21 -2 -21 14 1 14 20 13 24
-3 42 -10 11 -12 19 -6 19 7 0 17 -9 24 -20 7 -11 17 -20 22 -20 5 0 -1 12
-15 26 l-24 26 23 -6 c15 -5 22 -3 23 6 1 7 2 20 3 28 1 8 -2 23 -7 33 -5 10
-4 17 3 17 6 0 8 5 5 10 -4 6 -3 10 2 9 20 -3 34 2 28 10 -3 6 4 15 16 21 12
7 19 8 15 2 -4 -6 4 -9 19 -7 16 1 24 -2 22 -9 -2 -6 -11 -10 -20 -8 -24 4
-77 -26 -71 -41 6 -16 44 -40 52 -33 3 3 0 6 -7 6 -7 0 -9 5 -6 10 4 6 1 18
-7 27 -11 14 -10 15 12 9 19 -6 21 -5 10 3 -13 9 -12 11 3 11 10 0 20 -7 23
-15 6 -14 8 -13 19 2 9 12 10 24 4 35 -5 9 -6 24 -2 34 4 12 2 15 -8 12 -8 -3
-13 -12 -11 -22 2 -9 -2 -16 -8 -16 -5 0 -10 4 -10 9 0 17 12 41 20 41 11 0
69 58 63 64 -2 2 4 7 15 10 11 4 22 16 25 26 4 14 10 18 23 13 12 -4 15 -3 10
5 -4 7 -2 12 5 12 7 0 10 2 7 5 -9 9 55 73 69 68 7 -3 10 -9 7 -15 -3 -5 -13
-7 -21 -4 -8 3 -11 1 -8 -4 3 -6 1 -10 -6 -10 -28 0 4 -14 39 -17 24 -1 32 1
23 6 -11 7 -9 10 8 16 17 5 19 10 11 25 -14 27 -12 34 5 20 8 -7 15 -18 15
-26 0 -7 4 -15 9 -18 16 -10 -2 38 -18 51 -11 8 -20 8 -28 1 -17 -14 -17 -1 0
16 10 12 15 12 31 -2 12 -11 16 -12 11 -3 -5 9 -3 12 6 9 8 -3 13 -14 11 -24
-2 -15 -1 -16 7 -5 5 8 16 11 25 8 9 -4 16 -4 16 -1 0 2 -11 9 -25 14 -14 5
-25 14 -25 20 0 7 6 8 19 0 16 -8 21 -6 26 11 5 15 10 18 18 10 6 -6 16 -11
21 -11 6 0 3 5 -6 11 -9 5 -15 16 -12 24 3 7 1 22 -5 32 -6 11 -11 13 -11 5 0
-7 -5 -10 -12 -6 -7 5 -8 3 -3 -5 8 -14 -29 -54 -41 -43 -4 4 -4 2 -1 -4 4 -7
1 -17 -7 -23 -10 -9 -15 -8 -20 4 -3 9 -2 13 4 10 6 -3 10 0 10 8 0 7 11 19
25 25 14 6 24 16 23 21 -2 5 15 23 37 41 22 17 43 39 46 48 4 11 8 12 13 4 4
-6 -2 -20 -12 -30 -18 -18 -18 -19 7 -30 19 -9 22 -9 13 0 -17 17 -15 29 3 22
17 -7 21 21 5 31 -5 3 -10 10 -10 16 0 5 9 4 19 -3 11 -6 17 -19 14 -27 -4
-14 -4 -14 6 -1 6 8 11 11 11 6 0 -5 7 -3 15 4 9 7 14 19 11 26 -3 7 3 18 11
26 14 11 16 11 10 -4 -4 -12 -2 -15 9 -11 13 5 13 8 -2 24 -9 11 -12 19 -6 19
6 0 14 -5 17 -10 9 -14 28 -1 21 15 -6 16 13 35 35 35 9 0 23 7 30 17 13 15
12 15 -8 5 -28 -15 -28 -15 -30 8 -1 11 2 20 8 20 5 0 9 -5 9 -11 0 -8 4 -9
13 0 8 6 18 7 22 3 5 -4 5 -1 1 6 -4 6 -4 12 1 13 41 4 53 8 73 22 14 9 20 17
15 17 -6 0 -18 -7 -29 -15 -13 -10 -24 -11 -37 -5 -13 8 -20 6 -28 -7 -10 -17
-10 -17 -11 0 0 9 -6 17 -12 17 -7 0 -1 8 15 18 15 9 27 22 27 28 0 21 34 26
47 8 13 -18 2 -44 -19 -44 -7 0 -7 5 0 13 6 7 7 18 3 26 -6 9 -11 10 -15 2 -4
-6 -4 -16 0 -23 4 -7 3 -8 -4 -4 -7 4 -12 3 -12 -2 0 -18 33 -23 50 -7 14 13
19 13 41 -2 16 -10 13 -6 -8 15 -33 31 -42 52 -23 52 6 0 10 -7 10 -16 0 -12
5 -11 20 7 10 13 19 19 20 12 0 -6 -5 -15 -10 -18 -5 -3 -10 -11 -10 -18 0 -6
7 -2 15 9 13 16 16 17 25 4 5 -8 10 -11 10 -6 0 5 -7 18 -17 28 -18 20 -5 25
17 6 12 -11 12 -10 2 3 -16 22 5 40 39 33 19 -3 20 -3 5 4 -17 7 -16 10 10 27
16 11 36 18 44 17 13 -2 13 -1 1 7 -11 7 -24 3 -45 -12 -25 -17 -29 -18 -23
-4 3 9 0 22 -7 29 -11 11 -8 17 15 34 16 11 25 25 21 30 -4 4 1 2 11 -5 19
-15 24 -36 5 -25 -6 4 -8 3 -5 -3 4 -6 -1 -17 -10 -24 -14 -12 -15 -11 -8 10
6 21 5 22 -8 10 -11 -10 -12 -18 -5 -27 11 -13 33 -2 51 25 6 10 14 9 35 -3
25 -15 25 -15 8 0 -11 9 -21 24 -22 34 -2 15 -1 14 12 -3 15 -19 15 -19 12 -1
-2 10 2 21 9 23 8 3 11 -5 8 -24 -2 -15 -2 -23 1 -16 3 7 13 10 22 7 15 -5 15
-4 -1 6 -9 6 -15 16 -11 21 3 6 -2 16 -12 24 -11 7 -16 16 -12 20 3 4 15 -2
25 -12 13 -13 26 -17 39 -12 17 6 16 7 -6 10 -20 3 -25 9 -24 31 1 17 -3 25
-10 22 -6 -3 -3 1 6 9 10 8 14 18 10 23 -4 5 -3 6 1 2 5 -3 22 8 37 25 24 27
31 30 42 18 7 -8 8 -11 3 -8 -6 3 -17 1 -25 -5 -13 -8 -12 -9 2 -5 19 6 30
-14 22 -40 -2 -10 1 -8 7 5 7 12 16 22 21 22 4 0 8 5 8 11 0 8 -6 7 -17 -2
-15 -12 -16 -12 -10 3 3 10 0 24 -8 32 -13 12 -12 15 2 20 21 9 53 -21 46 -42
-3 -10 4 -5 16 11 27 32 35 33 61 7 11 -11 20 -16 20 -10 0 5 -9 15 -20 22
-11 7 -20 18 -20 25 0 6 -6 13 -12 15 -7 3 -13 16 -13 31 -1 14 2 24 6 21 4
-2 10 0 14 6 3 5 11 10 17 10 6 0 1 -11 -11 -24 -17 -18 -19 -26 -10 -31 8 -6
10 -4 4 5 -5 8 -3 11 6 8 8 -3 14 -11 15 -19 2 -29 4 -31 21 -18 14 12 16 12
11 -2 -4 -9 -1 -16 7 -16 18 0 2 32 -21 45 -10 6 -12 12 -6 16 5 3 15 -1 22
-9 18 -22 30 -18 28 9 -1 14 -5 23 -9 20 -4 -2 -11 1 -14 7 -5 7 1 9 16 7 16
-2 23 -9 21 -20 -1 -9 2 -19 8 -23 6 -4 7 1 3 12 -6 15 -4 16 9 5 13 -10 17
-10 22 3 3 8 3 21 0 28 -3 8 3 13 16 13 11 0 20 -4 20 -8 0 -4 9 -8 20 -8 11
0 20 4 20 10 0 5 -8 6 -17 3 -16 -6 -16 -5 -4 11 14 17 16 17 27 1 7 -9 11
-22 10 -28 -2 -7 -1 -9 1 -4 3 4 9 7 14 7 6 0 8 -4 5 -9 -7 -11 41 -7 52 4 4
4 -2 5 -14 1 -13 -4 -28 1 -42 14 -27 26 -28 35 -1 37 18 2 19 0 7 -14 -8 -10
-8 -14 -1 -10 6 4 13 1 16 -5 2 -7 8 -9 13 -5 5 4 3 12 -5 16 -10 6 -9 10 4
15 23 8 23 8 21 -11 0 -10 6 -18 14 -18 8 0 14 8 14 18 -2 14 3 16 20 11 11
-3 26 -11 33 -16 7 -5 14 -5 18 2 3 5 11 10 18 10 8 0 8 -3 -1 -12 -23 -23
-14 -27 42 -19 5 0 2 8 -5 17 -12 15 -11 16 11 10 17 -5 20 -4 12 2 -11 8 -11
10 1 15 20 7 31 -20 12 -30 -11 -6 -8 -14 11 -36 13 -15 24 -24 24 -20 0 5 -5
14 -12 21 -9 9 -9 12 -1 12 7 0 15 -4 18 -10 3 -5 11 -10 18 -10 6 0 2 6 -9
14 -19 14 -18 15 3 13 21 -1 41 -37 20 -37 -6 0 -7 -3 -4 -7 4 -3 19 4 33 18
15 13 25 18 22 10 -2 -8 6 -25 18 -38 13 -14 22 -30 20 -36 -1 -7 -1 -9 1 -4
3 4 9 7 14 7 6 0 8 -4 4 -9 -3 -6 5 -15 17 -21 20 -10 21 -10 6 3 -13 10 -15
16 -6 25 9 9 8 16 -6 30 -14 13 -20 14 -23 4 -4 -10 -9 -8 -19 5 -16 21 -18
43 -4 43 5 0 9 -6 7 -12 -1 -7 5 -12 15 -10 20 3 59 -44 51 -64 -6 -16 12 -19
22 -4 3 6 11 10 17 10 7 0 6 -5 -2 -15 -15 -18 -4 -36 17 -28 11 4 14 3 9 -5
-4 -7 -4 -12 1 -13 4 0 17 -2 27 -4 11 -2 26 0 34 4 12 7 11 9 -2 14 -10 4
-14 3 -11 -3 3 -5 -4 -8 -15 -7 -24 2 -26 12 -4 21 17 6 60 -12 50 -21 -3 -4
3 -12 14 -20 20 -14 29 -50 10 -38 -6 4 -7 11 -4 17 4 6 2 8 -3 5 -6 -4 -14 0
-17 9 -4 9 -11 12 -18 7 -18 -10 -39 -10 -63 1 -17 8 -18 7 -8 -6 7 -8 9 -18
5 -23 -4 -4 2 -3 13 3 14 7 26 7 38 1 9 -6 21 -7 26 -4 6 3 9 -4 8 -15 -1 -21
-12 -27 -20 -10 -3 6 -4 5 -3 -2 2 -7 9 -13 17 -13 8 0 13 6 11 14 -2 9 3 11
13 7 10 -3 18 1 22 11 5 14 8 13 14 -5 5 -12 15 -22 24 -22 8 0 15 -4 15 -10
0 -13 -22 -8 -35 8 -8 10 -15 9 -32 -7 -11 -11 -24 -17 -27 -13 -4 3 -4 -2 0
-13 5 -11 9 -14 12 -7 2 7 9 9 14 6 6 -4 8 -2 5 3 -4 6 1 17 10 24 14 12 15
11 10 -6 -4 -11 -2 -27 3 -35 5 -8 10 -11 10 -6 0 5 6 4 13 -2 8 -7 16 -6 26
5 12 13 11 14 -10 8 -23 -7 -23 -7 -6 11 15 16 19 17 27 5 5 -8 5 -22 1 -30
-5 -9 -6 -22 -3 -29 3 -10 -3 -9 -22 3 -14 10 -26 13 -26 9 0 -5 -7 -1 -14 8
-12 16 -14 15 -25 -10 -10 -25 -10 -26 4 -8 14 18 20 15 16 -8 -1 -5 4 -4 11
1 10 8 18 7 33 -3 17 -13 18 -16 5 -25 -13 -9 -12 -10 2 -6 9 3 19 1 22 -6 3
-7 3 -1 0 13 -5 21 -4 23 7 12 8 -7 14 -20 14 -30 0 -17 21 -24 77 -23 15 0
33 -8 40 -18 7 -10 17 -19 21 -19 5 -1 21 -17 37 -37 16 -20 32 -36 35 -35 4
1 18 -10 32 -24 21 -21 23 -27 10 -32 -9 -3 -18 -12 -21 -20 -3 -8 -2 -12 3
-9 5 3 12 1 15 -4 4 -5 -3 -12 -14 -16 -20 -7 -28 -25 -10 -25 6 0 10 5 10 11
0 5 4 8 9 5 14 -9 21 20 8 33 -6 6 -7 11 -1 12 5 0 17 2 27 4 9 2 15 -1 11 -6
-3 -5 -11 -6 -17 -3 -7 4 -8 3 -4 -2 5 -5 14 -9 20 -9 5 0 12 -6 15 -13 2 -7
-2 -10 -10 -7 -7 3 -19 -4 -26 -15 -12 -20 -6 -26 22 -21 5 1 6 -5 3 -14 -4
-8 -2 -15 2 -15 5 0 11 7 15 15 7 18 27 20 23 3 -1 -7 -9 -18 -17 -25 -12 -9
-12 -14 -3 -24 10 -10 16 -9 30 3 10 8 24 13 31 11 6 -3 12 0 12 6 0 5 -10 8
-23 5 -16 -2 -24 1 -24 11 0 8 5 15 11 15 6 0 4 5 -4 10 -8 5 -23 7 -33 4 -17
-5 -17 -3 -7 16 l12 22 21 -23 c12 -13 22 -28 22 -34 0 -5 5 -10 11 -10 6 0
33 -22 60 -50 27 -27 41 -46 31 -42 -11 4 -16 3 -12 -3 3 -6 15 -10 25 -10 10
0 28 -14 40 -30 12 -17 26 -28 31 -25 5 4 6 0 3 -8 -3 -9 3 -17 17 -20 13 -4
20 -9 16 -13 -4 -4 7 -15 23 -25 30 -19 39 -42 20 -54 -6 -4 -9 4 -7 17 1 12
-2 23 -8 23 -16 0 -57 32 -48 37 4 3 3 3 -4 2 -6 -2 -14 2 -17 9 -2 7 -5 4 -5
-5 -1 -10 -5 -18 -11 -18 -13 0 -13 6 1 32 9 16 8 19 -2 13 -8 -6 -10 -4 -4 5
5 9 4 11 -4 6 -6 -4 -9 -12 -5 -17 3 -5 1 -16 -5 -23 -9 -10 -8 -15 4 -20 8
-3 21 -3 28 0 7 2 13 -4 15 -16 4 -42 6 -49 13 -45 4 3 10 -2 13 -11 4 -9 9
-14 13 -11 3 4 0 13 -7 22 -7 8 -8 15 -2 15 17 0 34 -28 26 -42 -13 -20 -13
-38 -1 -35 7 1 11 -9 10 -23 l-2 -25 11 23 c6 12 15 22 20 22 12 0 10 -14 -4
-28 -7 -7 -8 -12 -2 -12 6 0 16 11 22 25 6 14 16 25 22 25 6 0 8 -5 4 -12 -4
-7 -3 -8 5 -4 6 4 9 12 6 17 -4 5 -1 9 4 9 6 0 10 -11 9 -25 -2 -19 -7 -24
-20 -19 -13 4 -21 -2 -28 -22 -6 -15 -8 -29 -6 -32 3 -2 8 7 12 22 3 14 11 26
16 26 6 0 8 -7 4 -15 -3 -8 -1 -15 3 -15 5 0 11 7 15 15 8 21 21 18 23 -5 1
-11 -2 -18 -7 -15 -19 12 -20 -17 -1 -41 12 -15 21 -22 21 -17 0 6 -7 16 -15
23 -20 17 -19 25 4 27 13 1 18 -3 15 -12 -3 -7 5 -22 17 -34 13 -12 19 -21 13
-21 -5 0 -2 -5 6 -10 8 -5 22 -7 31 -4 12 3 16 -1 15 -13 -1 -13 5 -17 23 -15
20 2 22 0 11 -12 -6 -9 -9 -20 -5 -26 3 -5 1 -10 -6 -10 -7 0 -9 -3 -6 -7 4
-3 15 1 25 10 10 10 22 14 25 10 11 -11 8 -23 -5 -20 -12 2 -14 -11 -9 -63 1
-13 2 -13 11 0 5 8 6 17 2 20 -4 3 -8 14 -10 25 -2 18 -1 18 18 -3 15 -19 18
-28 10 -45 -10 -21 -10 -21 6 0 9 13 21 23 26 23 6 0 6 -6 -1 -14 -10 -11 -8
-16 9 -21 18 -6 19 -9 9 -23 -11 -14 -11 -15 0 -5 7 6 21 9 30 6 13 -4 13 -2
-1 7 -26 16 -22 30 5 17 27 -13 35 -49 9 -40 -13 4 -14 3 -3 -5 7 -5 21 -9 30
-7 9 1 19 -3 23 -9 14 -20 8 -27 -13 -16 -11 7 -23 9 -26 6 -3 -3 5 -10 18
-15 27 -10 62 -48 51 -55 -11 -7 -43 20 -34 29 4 5 2 5 -5 1 -7 -4 -10 -13 -6
-22 3 -8 8 -12 11 -10 3 3 11 1 18 -5 8 -6 14 -7 18 0 4 6 14 7 24 4 14 -5 14
-3 -2 9 -10 8 -16 20 -12 26 4 7 2 10 -6 7 -9 -4 -14 2 -15 15 -2 19 0 19 25
4 l27 -16 -25 20 c-13 11 -28 18 -32 16 -4 -3 -8 0 -8 5 0 17 19 13 42 -9 24
-22 54 -28 42 -8 -6 10 -4 10 7 2 16 -12 29 -12 47 -1 7 5 12 3 12 -7 0 -10
-7 -13 -20 -11 -11 2 -18 0 -15 -4 2 -5 -3 -15 -12 -22 -14 -12 -15 -11 -9 11
5 17 4 20 -2 12 -5 -8 -12 -13 -16 -13 -19 3 -26 0 -26 -10 0 -8 4 -8 13 0 11
8 14 5 14 -18 0 -22 -4 -28 -15 -23 -11 4 -9 -1 4 -14 20 -21 36 -12 27 15 -3
9 9 1 28 -17 27 -28 35 -31 44 -19 5 8 21 12 35 10 17 -2 21 0 11 6 -9 6 -10
11 -3 15 6 4 16 -2 21 -13 9 -16 7 -21 -7 -24 -9 -3 -3 -4 13 -3 21 2 30 8 30
21 0 21 21 33 22 13 0 -7 4 -21 8 -31 6 -13 3 -16 -9 -11 -9 3 -16 2 -16 -4 0
-11 25 -10 36 0 3 4 1 16 -6 27 -9 17 -8 21 5 21 9 0 14 -4 11 -8 -2 -4 4 -13
14 -20 15 -9 22 -9 34 3 21 21 29 18 16 -6 -7 -11 -9 -23 -7 -26 3 -2 8 5 12
16 6 21 45 49 45 34 0 -13 40 -34 50 -28 7 4 7 13 1 24 -8 15 -6 18 19 18 19
0 26 -4 23 -14 -3 -7 -10 -10 -16 -6 -6 3 -7 1 -3 -5 10 -16 44 -6 67 20 18
21 19 22 17 3 -2 -11 -7 -23 -13 -27 -5 -4 -6 -10 -2 -15 9 -9 28 17 21 29 -3
4 0 8 7 8 8 0 6 7 -5 19 -16 17 -16 19 0 25 9 4 14 9 11 13 -4 3 -13 0 -22 -7
-18 -15 -19 -1 -1 22 10 13 15 15 24 6 7 -7 12 -8 12 -4 0 5 8 2 18 -5 15 -13
16 -12 3 3 -8 11 -9 18 -3 18 7 0 9 7 5 17 -5 11 -3 14 6 8 11 -6 11 -3 1 16
-10 17 -10 24 -1 27 6 2 8 8 5 14 -10 15 -11 147 -2 142 4 -3 5 1 3 8 -11 28
-11 88 -1 88 6 0 5 4 -3 9 -9 6 -10 11 -2 15 6 4 8 13 4 19 -4 7 -8 57 -9 112
-1 55 -2 104 -3 108 -1 9 -1021 1026 -1031 1028 -3 1 -33 32 -67 69 -34 37
-64 65 -67 62 -3 -3 -6 3 -6 13 0 10 -3 16 -6 13 -6 -6 -154 139 -216 213 -40
47 -96 144 -101 175 -1 11 -5 24 -8 29 -4 6 -5 18 -4 28 2 9 -2 17 -8 17 -7 0
-5 5 3 10 13 9 13 10 0 10 -13 0 -13 1 0 10 12 8 12 10 -5 11 -11 0 -14 3 -8
6 8 3 11 14 7 30 -5 16 -3 24 3 20 7 -4 8 8 3 34 -6 31 -5 39 6 35 8 -3 11 0
7 9 -3 8 -9 12 -14 9 -5 -3 -6 2 -3 10 8 21 24 20 25 -1 0 -13 2 -14 6 -4 3 8
-2 20 -11 26 -14 11 -14 14 7 37 12 13 30 27 40 31 14 5 15 10 5 32 -6 14 -13
23 -15 21 -3 -2 0 -13 6 -24 9 -17 7 -21 -15 -26 -15 -4 -22 -11 -18 -18 5 -7
3 -8 -5 -3 -9 5 -8 13 7 29 11 11 18 26 15 33 -7 20 18 26 33 7 13 -17 13 -16
3 8 -7 16 -17 25 -23 21 -12 -7 13 28 27 38 5 4 14 17 20 29 13 25 37 39 37
21 0 -6 -5 -10 -11 -8 -13 2 -20 -28 -12 -49 6 -17 29 -18 38 -3 4 6 0 9 -10
7 -10 -2 -20 2 -22 8 -2 7 6 10 19 9 13 -1 29 -3 36 -4 7 0 10 -6 6 -13 -4 -7
-3 -8 5 -4 14 9 5 26 -15 26 -8 0 -12 4 -9 10 4 6 -1 7 -11 3 -12 -4 -15 -3
-10 6 4 6 2 19 -6 28 -7 9 -8 14 -2 10 7 -4 14 -1 17 7 6 14 57 19 57 6 0 -13
-27 -19 -37 -9 -5 5 -9 1 -10 -12 -1 -15 3 -19 17 -14 10 3 21 1 25 -5 3 -5
11 -10 18 -10 6 0 3 6 -8 13 -12 10 -14 16 -7 21 7 4 12 2 12 -3 0 -6 5 -11
10 -11 6 0 3 11 -6 26 -9 14 -23 23 -30 20 -7 -3 -16 0 -20 7 -4 7 -4 9 1 5 4
-4 16 3 26 15 10 12 18 16 19 10 0 -7 -4 -13 -10 -13 -5 0 1 -10 13 -23 12
-13 25 -22 29 -20 3 2 9 -3 11 -9 4 -8 6 -9 6 -2 1 7 -11 20 -26 29 l-26 18
24 13 c33 18 37 17 34 -11 -2 -14 1 -23 6 -19 5 3 7 10 4 15 -3 5 5 21 19 36
14 15 22 31 19 37 -4 5 0 7 10 3 8 -3 21 1 27 9 9 10 9 14 1 14 -6 0 -11 5
-11 11 0 6 7 9 15 5 22 -8 18 7 -5 21 -16 11 -18 10 -14 -2 5 -12 2 -13 -12
-8 -18 7 -18 6 -1 -11 21 -21 22 -37 2 -30 -8 4 -12 11 -9 16 4 6 -4 4 -17 -2
-33 -17 -38 -24 -13 -16 15 4 21 2 21 -9 0 -9 -6 -14 -13 -11 -9 3 -11 -1 -7
-12 6 -15 5 -15 -10 -3 -23 18 -21 38 4 51 11 7 18 14 15 17 -3 3 8 16 24 28
16 12 28 25 25 28 -3 4 -2 5 1 3 3 -2 20 12 38 31 29 31 35 34 54 24 12 -6 22
-16 22 -22 0 -6 -6 -7 -12 -3 -20 12 -46 12 -42 -1 3 -6 -3 -19 -11 -30 -16
-19 -16 -19 -9 5 3 14 5 23 3 20 -2 -3 -12 -15 -22 -27 -14 -16 -15 -23 -6
-29 8 -5 10 -3 4 6 -5 8 -3 11 5 8 8 -2 14 -14 15 -26 2 -29 11 -37 19 -17 3
9 2 13 -4 10 -6 -3 -10 -1 -10 4 0 6 5 11 11 11 6 0 9 6 6 13 -13 35 33 58 55
26 8 -12 9 -12 5 1 -2 8 0 23 4 32 6 10 5 19 -1 23 -5 3 -10 11 -10 16 0 6 4
7 10 4 5 -3 19 -1 30 5 25 13 26 2 3 -16 -17 -13 -17 -15 0 -25 9 -5 15 -14
12 -20 -10 -15 2 -10 16 8 8 9 9 14 3 10 -7 -4 -17 -1 -23 7 -9 11 -8 15 5 20
9 3 14 12 11 19 -7 17 18 63 27 49 3 -6 2 -13 -4 -17 -5 -3 -10 -12 -10 -18 0
-7 5 -4 11 6 8 14 14 16 25 6 8 -6 14 -7 14 -3 0 5 -9 15 -21 22 -12 7 -18 16
-15 19 3 3 12 0 20 -6 10 -8 16 -9 21 -1 3 5 11 10 16 10 6 0 7 -5 3 -12 -4
-6 -3 -8 3 -5 17 11 10 52 -9 51 -10 -1 -16 5 -15 17 2 24 3 24 29 -1 12 -11
24 -18 26 -15 3 2 -6 13 -19 24 -13 11 -19 20 -14 21 6 0 16 -5 23 -12 9 -9
12 -9 12 0 0 7 -6 12 -12 12 -9 0 -8 4 2 10 23 15 2 12 -30 -5 -22 -11 -28
-21 -25 -41 2 -19 -3 -28 -22 -35 -14 -5 -28 -7 -33 -4 -4 3 -6 -4 -3 -15 3
-12 0 -20 -7 -20 -7 0 -10 7 -5 18 5 13 4 14 -6 5 -10 -10 -9 -16 2 -29 12
-16 12 -17 -4 -11 -12 5 -26 -1 -44 -19 -14 -14 -28 -22 -32 -17 -3 4 -5 7 -2
6 2 -1 24 20 49 47 25 27 50 46 55 43 6 -4 8 0 4 11 -4 10 -3 15 3 11 6 -3 10
-1 10 5 0 6 5 8 10 5 6 -3 10 1 10 9 0 8 14 24 30 36 17 12 27 26 24 32 -4 5
5 3 18 -6 20 -13 25 -23 22 -49 -3 -22 -1 -27 5 -18 5 8 7 20 4 28 -3 7 1 13
10 13 8 0 20 7 27 15 15 18 35 20 24 3 -5 -7 -3 -8 5 -3 9 5 10 10 2 18 -7 7
-15 6 -26 -3 -18 -15 -21 0 -3 18 9 9 20 7 47 -9 l36 -21 -25 21 c-24 20 -36
25 -53 22 -5 -1 -7 4 -4 11 5 14 11 14 40 3 10 -4 17 -3 17 5 0 6 -4 8 -10 5
-6 -3 -10 -2 -10 4 0 5 -9 8 -20 6 -13 -2 -20 2 -20 11 0 8 7 14 17 12 11 -2
19 6 23 22 4 14 13 24 20 22 8 -2 10 3 6 13 -3 9 -2 13 4 10 6 -3 10 -1 10 5
0 6 5 8 11 4 8 -4 7 -9 -2 -16 -11 -8 -11 -9 1 -5 8 2 14 13 12 24 -3 25 23
50 34 32 5 -8 3 -9 -6 -4 -9 6 -11 4 -5 -5 6 -9 4 -11 -4 -5 -10 6 -11 3 -2
-13 13 -24 -5 -43 -43 -46 -15 0 -23 -6 -21 -16 1 -8 -3 -18 -9 -22 -6 -4 -7
-10 -3 -15 9 -9 28 17 21 29 -3 4 -1 8 5 8 15 0 23 -18 11 -25 -5 -3 -10 -11
-10 -18 0 -6 6 -2 14 9 10 13 11 23 4 31 -7 9 -7 13 0 13 6 0 13 -4 17 -10 7
-11 35 -2 35 12 0 6 -6 5 -15 -2 -8 -7 -15 -8 -15 -2 0 5 6 15 14 21 11 10 17
8 25 -6 9 -17 10 -17 9 2 0 11 3 29 7 40 5 14 4 16 -3 6 -7 -9 -12 -10 -16 -2
-4 6 -5 11 -1 11 3 0 1 10 -6 21 -6 12 -7 19 -2 16 10 -6 49 33 45 45 -1 4 5
5 14 1 8 -3 14 -1 12 4 -4 12 137 153 152 153 6 0 8 4 5 10 -3 5 8 18 24 28
17 10 28 22 23 27 -4 5 -1 5 6 1 7 -4 12 -1 12 8 0 9 7 16 15 16 8 0 14 6 12
12 -1 7 8 14 21 16 12 2 22 -1 22 -7 0 -5 -8 -8 -19 -6 -10 2 -18 -2 -17 -8 0
-7 -3 -13 -9 -13 -5 -1 -18 -19 -27 -40 -10 -22 -18 -35 -18 -31 0 4 -9 3 -20
-3 -11 -6 -18 -16 -14 -21 3 -6 0 -9 -7 -7 -21 4 -71 -49 -53 -56 8 -3 14 -11
14 -17 0 -7 -7 -5 -19 5 -16 15 -21 15 -28 3 -4 -7 -17 -19 -28 -26 -20 -12
-20 -12 1 -6 13 3 21 0 22 -7 0 -7 3 -24 6 -36 4 -19 2 -23 -12 -17 -13 5 -14
3 -5 -6 13 -13 37 -3 28 12 -4 5 -1 9 5 9 7 0 4 7 -5 16 -9 9 -13 19 -9 23 4
3 9 0 11 -6 3 -7 9 -13 14 -13 6 0 3 10 -5 22 -22 32 -19 48 4 20 l19 -22 6
21 c5 14 2 25 -6 30 -9 6 -10 9 -2 9 6 0 15 9 18 20 4 11 11 18 16 15 5 -4 5
-14 -2 -27 -8 -15 -8 -23 1 -32 8 -8 9 -6 4 8 -6 15 -4 17 6 11 10 -6 12 -4 8
7 -4 8 1 26 10 39 19 27 55 39 46 16 -3 -8 2 -17 12 -21 13 -5 14 -4 6 7 -12
14 -7 27 10 27 5 0 7 -4 3 -9 -3 -5 -2 -12 3 -15 4 -2 8 6 8 19 0 19 -3 22
-17 15 -16 -9 -29 -4 -29 11 0 5 6 7 13 5 6 -1 9 -1 4 1 -4 3 -7 10 -7 16 0 5
3 7 7 4 3 -4 12 1 20 11 13 16 14 16 9 -3 -7 -25 29 -53 38 -30 3 8 0 17 -6
21 -7 4 -8 3 -4 -4 4 -7 3 -12 -2 -12 -19 0 -21 14 -6 42 14 27 14 31 -3 50
-18 20 -18 21 3 10 12 -6 25 -8 29 -4 5 4 5 -1 2 -11 -4 -11 -3 -16 3 -12 17
10 11 -7 -7 -20 -17 -13 -10 -36 10 -34 9 0 9 2 0 6 -7 2 -13 9 -13 14 0 6 4
8 9 5 11 -7 23 22 15 35 -3 6 0 16 6 24 7 8 11 15 9 16 -31 6 -38 6 -34 -1 3
-5 1 -11 -4 -14 -5 -4 -12 -2 -15 3 -10 16 20 31 57 29 20 -2 35 1 34 5 -1 5
10 15 25 23 16 8 28 19 28 25 0 6 3 8 8 6 4 -3 8 6 9 20 1 19 -1 22 -8 12 -7
-12 -9 -12 -9 1 0 12 -2 12 -9 1 -6 -9 -11 -10 -15 -2 -4 6 4 13 18 17 14 3
25 9 24 13 -2 20 4 31 18 31 9 0 12 5 8 12 -4 7 -3 8 4 4 7 -4 12 -1 12 8 0 9
7 16 16 16 8 0 13 4 10 9 -3 5 1 11 9 14 10 4 12 1 9 -11 -5 -14 -4 -14 4 -3
6 8 8 20 5 28 -3 7 0 13 5 13 6 0 14 9 17 20 4 11 11 17 17 14 7 -5 8 -2 3 5
-11 20 -12 71 -1 71 6 0 4 5 -4 11 -12 8 -12 12 -2 16 9 4 10 8 2 18 -8 9 -8
15 0 20 6 3 7 11 4 17 -9 15 -11 147 -2 142 4 -2 3 8 -1 23 -4 16 -4 40 0 56
4 15 4 25 -1 22 -4 -3 -7 33 -5 80 1 53 -1 82 -7 79 -6 -4 -5 3 1 14 11 20 9
21 -22 20 -19 -1 -39 2 -45 6 -7 4 -12 3 -12 -2 0 -5 -17 -6 -40 -2 -22 4 -40
3 -40 -2 0 -5 -9 -4 -20 2 -11 6 -20 7 -20 2 0 -4 -27 -5 -60 -2 -33 3 -60 2
-60 -2 0 -5 -9 -4 -20 2 -11 6 -20 7 -20 2 0 -5 -18 -6 -40 -2 -22 4 -40 3
-40 -2 0 -5 -9 -4 -20 2 -14 8 -20 8 -20 0 0 -8 -6 -8 -20 0 -11 6 -20 7 -20
2 0 -5 -10 -7 -23 -5 -19 4 -93 -65 -445 -415 -232 -230 -424 -417 -427 -414
-3 3 -5 0 -5 -6 0 -9 -318 -332 -335 -339 -3 -2 -4 -4 -4 -5 5 -8 -283 -275
-299 -279 -4 0 -25 -10 -47 -22 -22 -11 -42 -20 -45 -20 -3 0 -16 -4 -30 -9
-14 -5 -42 -10 -62 -11 -21 -1 -38 -4 -38 -7 0 -3 -28 -4 -62 -3 -95 5 -122 8
-133 14 -5 3 -31 12 -57 19 -27 7 -48 17 -48 22 0 6 -6 8 -14 5 -8 -3 -17 1
-20 9 -3 8 -11 14 -17 14 -21 0 -121 93 -454 426 -179 178 -331 324 -337 324
-6 0 -9 3 -6 6 7 6 -582 594 -594 594 -5 0 -8 6 -9 13 0 19 -102 98 -112 88
-6 -6 -19 -6 -33 -1 -13 5 -24 6 -24 1 0 -5 -18 -5 -40 -1 -22 4 -40 3 -40 -2
0 -5 -9 -4 -20 2 -14 8 -20 8 -20 0 0 -8 -6 -8 -20 0 -14 8 -20 8 -20 0 0 -8
-6 -8 -20 0 -11 6 -20 7 -20 3 0 -4 -36 -6 -80 -3 -44 3 -80 1 -80 -3 0 -4 -9
-3 -20 3 -11 6 -20 7 -20 2 0 -10 -43 -10 -50 0 -3 3 -13 2 -23 -4z m4533
-799 c0 -4 -7 -15 -16 -24 -12 -11 -20 -13 -29 -5 -9 8 -12 4 -10 -15 3 -20
-1 -24 -18 -21 -11 1 -23 9 -25 16 -3 9 2 11 17 7 17 -4 20 -3 11 8 -8 9 -6
14 6 19 24 9 36 7 28 -6 -5 -7 -3 -8 6 -3 10 6 9 11 -5 22 -18 12 -17 13 8 11
15 -1 27 -6 27 -9z m-4284 -64 c12 -11 13 -19 4 -32 -11 -17 -11 -17 -6 0 3
11 0 20 -9 23 -8 4 -15 10 -15 15 0 13 9 11 26 -6z m64 -52 c0 -17 -19 -37
-27 -29 -4 5 -2 11 6 14 11 4 11 6 0 13 -11 7 -10 9 4 9 9 0 17 -3 17 -7z
m-70 -28 c-7 -9 -15 -13 -18 -10 -3 2 1 11 8 20 7 9 15 13 18 10 3 -2 -1 -11
-8 -20z m122 -94 c2 7 8 6 17 -4 11 -14 9 -16 -15 -14 -15 1 -30 9 -32 17 -4
13 -3 13 10 2 12 -9 17 -10 20 -1z m3668 -282 c0 -6 -4 -7 -10 -4 -5 3 -10 11
-10 16 0 6 5 7 10 4 6 -3 10 -11 10 -16z m-3288 -52 c-7 -8 -10 -17 -7 -21 3
-3 0 -2 -7 3 -8 8 -8 14 2 26 7 8 15 13 18 10 3 -2 0 -11 -6 -18z m38 -53 c0
-8 -4 -12 -10 -9 -5 3 -10 10 -10 16 0 5 5 9 10 9 6 0 10 -7 10 -16z m3095
-17 c-1 -14 -8 -22 -21 -22 -10 -1 -25 -4 -32 -8 -7 -5 -12 -3 -12 3 0 6 7 13
15 16 8 4 12 10 9 15 -3 5 3 6 12 2 13 -5 16 -3 11 10 -4 10 -2 14 7 11 7 -3
12 -15 11 -27z m-2995 -56 c14 -7 34 -25 45 -42 11 -16 28 -32 38 -35 9 -3 17
-9 17 -13 0 -10 -39 -11 -45 0 -4 5 -11 7 -16 4 -13 -8 -11 9 2 22 8 8 7 13
-2 18 -8 5 -10 4 -5 -3 11 -18 -10 -14 -29 4 -9 9 -14 23 -11 31 3 8 1 11 -4
8 -5 -3 -18 -1 -28 4 -13 7 -22 7 -30 -1 -9 -9 -12 -8 -12 6 0 9 5 14 10 11 6
-3 10 -1 10 4 0 7 6 8 18 2 9 -5 28 -14 42 -20z m2986 2 c-8 -8 -36 5 -36 17
0 7 6 7 21 0 11 -7 18 -14 15 -17z m-76 -81 c0 -4 -9 -13 -20 -20 -22 -13 -27
-3 -8 16 14 14 28 16 28 4z m-2716 -105 c3 3 6 -1 6 -11 0 -10 5 -14 11 -11 6
4 13 -2 16 -14 3 -12 10 -18 17 -14 6 3 8 2 3 -2 -10 -12 -47 -14 -53 -3 -3 4
2 8 10 8 9 0 16 5 16 10 0 6 -3 9 -7 8 -5 -1 -20 6 -35 16 -15 10 -33 14 -39
10 -8 -4 -9 -3 -5 4 4 7 2 12 -5 12 -8 0 -8 4 1 15 9 11 9 15 1 15 -7 0 -9 5
-6 10 4 6 19 -4 34 -24 16 -20 31 -33 35 -29z m2591 23 c-3 -5 -12 -10 -18
-10 -7 0 -6 4 3 10 19 12 23 12 15 0z m-2422 -192 c9 3 9 1 1 -8 -9 -9 -17 -9
-33 -1 -22 12 -26 23 -14 35 4 4 14 -1 21 -11 7 -10 19 -17 25 -15z m2192 -27
c11 -14 14 -21 8 -17 -7 4 -21 2 -32 -3 -15 -8 -20 -7 -25 5 -3 8 -2 12 3 9 5
-3 13 4 16 16 4 11 8 19 9 17 0 -2 10 -14 21 -27z m-2175 -7 c0 -20 -17 -25
-30 -9 -7 8 -16 12 -21 9 -5 -3 -9 -1 -9 4 0 5 14 9 30 9 18 0 30 -6 30 -13z
m1013 -1288 c13 13 109 11 114 -3 3 -7 9 -13 15 -13 5 0 7 4 4 8 -3 5 1 9 9 9
8 0 15 -4 15 -7 0 -13 -27 -31 -41 -28 -8 2 -13 -3 -11 -9 1 -7 -2 -13 -8 -13
-5 0 -10 6 -10 14 0 8 5 18 10 21 6 3 10 12 9 18 0 8 -3 7 -6 -2 -5 -11 -7
-11 -15 0 -8 11 -8 10 -4 -4 5 -15 2 -17 -17 -12 -12 4 -26 11 -31 16 -5 4
-16 4 -25 0 -9 -5 -24 -7 -34 -6 -9 2 -15 -1 -11 -6 7 -12 -17 -43 -36 -47 -8
-2 -23 -11 -32 -19 -11 -10 -18 -11 -18 -5 0 6 9 16 20 22 22 12 17 37 -7 37
-13 0 -13 -2 3 -14 10 -7 15 -13 12 -13 -4 0 -14 -3 -24 -7 -11 -4 -15 -3 -11
4 4 6 1 18 -7 25 -12 12 -8 14 25 15 22 0 49 8 62 16 13 9 26 11 33 6 6 -5 14
-6 17 -3z m209 -31 c-3 -5 2 -4 11 3 14 12 16 11 14 -7 -1 -14 -6 -20 -16 -16
-11 4 -12 3 -1 -10 7 -8 8 -15 2 -15 -5 0 -15 14 -22 30 -10 24 -15 28 -26 19
-8 -6 -14 -17 -13 -23 0 -7 2 -6 6 2 5 14 23 17 23 4 0 -12 -50 -33 -61 -26
-6 3 -16 0 -24 -6 -12 -10 -16 -9 -21 3 -3 9 -12 13 -19 11 -18 -7 -30 15 -16
29 9 9 16 6 30 -12 18 -23 48 -22 34 2 -3 7 4 3 16 -7 18 -17 21 -17 15 -3 -4
11 0 19 10 23 9 3 16 12 16 19 0 10 5 11 24 2 13 -7 22 -16 18 -22z m-178 -13
c-4 -12 -10 -22 -15 -22 -13 0 -11 14 3 28 7 7 9 12 5 12 -3 0 -15 -9 -26 -21
-24 -26 -46 -17 -29 11 7 10 15 17 18 15 3 -2 12 0 20 5 20 12 31 -1 24 -28z
m240 7 c-3 -5 -10 -6 -16 -3 -7 4 -8 2 -4 -4 5 -8 13 -9 24 -3 13 7 25 4 42
-10 14 -10 31 -19 38 -19 6 0 12 -5 12 -10 0 -7 -6 -7 -19 -1 -10 6 -22 7 -26
3 -5 -4 -4 0 0 8 8 13 7 13 -10 0 -17 -14 -18 -13 -12 3 5 12 3 16 -5 11 -7
-5 -8 -3 -3 6 5 9 4 11 -3 6 -8 -5 -9 -13 -2 -25 9 -18 4 -31 -12 -31 -5 0 -7
4 -4 8 2 4 1 14 -4 22 -7 11 -14 9 -35 -14 -14 -16 -29 -25 -33 -21 -4 3 4 14
16 24 13 9 24 24 25 31 4 24 18 41 28 34 5 -3 7 -10 3 -15z m-408 -11 c5 -8 2
-9 -10 -5 -11 5 -15 3 -10 -5 5 -8 2 -9 -11 -4 -15 5 -16 4 -6 -8 15 -17 5
-39 -12 -30 -7 3 -3 -2 7 -10 11 -9 16 -19 12 -23 -4 -5 -15 1 -24 12 -20 23
-43 26 -56 6 -6 -9 -3 -17 8 -23 9 -5 16 -14 16 -20 0 -6 -8 -4 -18 5 -14 13
-21 14 -30 5 -9 -9 -12 -9 -12 -1 0 7 5 15 10 18 8 5 7 12 -2 23 -10 12 -10
14 0 8 7 -4 12 -2 12 4 0 6 5 8 10 5 6 -3 10 -1 10 5 0 6 19 19 43 30 51 23
54 23 63 8z m4 -33 c0 -8 -4 -15 -10 -15 -5 0 -10 7 -10 15 0 8 5 15 10 15 6
0 10 -7 10 -15z m160 -5 c0 -5 -4 -10 -10 -10 -5 0 -10 5 -10 10 0 6 5 10 10
10 6 0 10 -4 10 -10z m235 1 c3 -5 1 -12 -5 -16 -5 -3 -10 1 -10 9 0 18 6 21
15 7z m-115 -11 c0 -5 -4 -10 -10 -10 -5 0 -10 5 -10 10 0 6 5 10 10 10 6 0
10 -4 10 -10z m223 -2 c9 1 17 -3 17 -9 0 -5 7 -9 15 -9 14 0 20 -13 16 -34
-1 -5 5 -4 13 4 10 7 16 8 16 2 0 -6 -4 -13 -10 -17 -5 -3 -7 -12 -4 -19 3 -8
0 -17 -6 -21 -6 -3 -9 -3 -8 2 4 16 -13 51 -28 57 -8 3 -12 10 -9 16 9 14 -9
12 -24 -2 -10 -11 -12 -10 -9 2 2 9 -4 14 -14 14 -10 -1 -18 3 -18 8 0 6 -9 0
-20 -13 -10 -13 -19 -20 -20 -15 0 20 32 44 53 39 12 -3 30 -5 40 -5z m-686
-93 c11 -8 10 -13 -6 -27 -19 -16 -21 -16 -36 5 -9 13 -11 23 -5 25 6 2 7 9 4
14 -4 7 -2 8 4 4 7 -4 12 -1 13 6 0 9 2 8 6 -2 4 -8 12 -20 20 -25z m703 5 c0
-5 -7 -7 -15 -4 -8 4 -12 10 -9 15 6 11 24 2 24 -11z m84 11 c17 -6 17 -8 3
-14 -8 -3 -21 1 -27 9 -13 15 -6 17 24 5z m-724 -5 c0 -3 -4 -8 -10 -11 -5 -3
-10 -1 -10 4 0 6 5 11 10 11 6 0 10 -2 10 -4z m750 -27 c0 -5 5 -7 10 -4 6 3
10 4 10 1 0 -3 -10 -10 -22 -17 -18 -10 -20 -9 -14 7 7 17 6 17 -14 -1 -21
-19 -29 -8 -8 13 15 15 38 16 38 1z m50 -79 c0 -5 -5 -10 -11 -10 -5 0 -7 5
-4 10 3 6 8 10 11 10 2 0 4 -4 4 -10z m-1040 -60 c0 -6 -8 -10 -17 -8 -13 2
-18 -4 -18 -22 0 -19 -5 -24 -19 -22 -14 3 -17 -1 -13 -12 4 -9 2 -16 -3 -16
-22 0 -18 21 12 54 31 35 58 47 58 26z m1124 -22 c-3 -4 -9 -8 -15 -8 -5 0 -9
4 -9 8 0 5 7 9 15 9 8 0 12 -4 9 -9z m64 -24 c-7 -6 28 -44 40 -44 5 0 18 -11
30 -25 12 -14 20 -25 18 -25 -3 0 -12 -3 -21 -6 -13 -5 -16 -2 -13 13 1 11 0
19 -3 19 -3 -1 -13 5 -22 13 -10 7 -17 9 -17 3 0 -5 7 -12 15 -16 22 -8 18
-21 -6 -23 -12 -1 -19 3 -16 10 2 7 -4 23 -15 36 -14 18 -15 27 -7 37 6 8 14
14 17 14 3 0 3 -3 0 -6z m-1333 -110 c0 -21 -40 -58 -53 -50 -5 3 -18 -1 -28
-10 -18 -14 -17 -14 6 -3 21 10 23 9 12 -2 -7 -8 -27 -14 -44 -15 -28 -2 -29
0 -12 9 10 6 33 26 51 45 18 18 36 31 42 28 5 -4 13 -1 17 5 4 8 3 9 -4 5 -7
-4 -12 -2 -12 4 0 7 6 10 12 8 7 -3 13 -13 13 -24z m-202 -187 c4 -10 -4 -14
-24 -14 -25 0 -26 2 -11 13 22 17 29 17 35 1z m-39 -36 c3 -5 -3 -19 -13 -32
-10 -13 -16 -31 -13 -39 3 -11 2 -12 -8 -4 -9 9 -9 17 1 35 7 13 12 30 11 37
-3 14 14 17 22 3z m1858 -13 c-7 -7 -12 -8 -12 -2 0 14 12 26 19 19 2 -3 -1
-11 -7 -17z m-1893 -15 c-7 -10 -24 -28 -38 -41 -22 -19 -23 -22 -6 -17 19 6
19 6 2 -8 -10 -8 -17 -19 -16 -23 3 -20 -2 -35 -10 -30 -10 7 -9 25 2 44 5 7
4 12 -2 12 -10 0 -15 -14 -12 -32 2 -14 -17 -8 -23 7 -3 9 3 19 17 26 31 17
47 35 39 44 -4 5 -1 5 6 1 7 -4 12 -1 12 9 0 9 5 13 10 10 6 -3 10 -1 10 4 0
6 5 11 11 11 8 0 7 -6 -2 -17z m1941 -43 c0 -5 -4 -10 -10 -10 -5 0 -10 5 -10
10 0 6 5 10 10 10 6 0 10 -4 10 -10z m-2143 -195 c-9 -7 -14 -15 -10 -18 3 -4
-2 -7 -11 -7 -15 0 -15 4 6 28 13 16 25 24 27 19 2 -6 -4 -16 -12 -22z m2393
-20 c7 -8 16 -12 21 -9 5 3 9 1 9 -4 0 -6 -11 -9 -24 -8 -13 0 -22 4 -19 9 2
4 -1 7 -6 7 -6 0 -11 5 -11 10 0 15 16 12 30 -5z m110 -80 c0 -3 -7 -5 -15 -5
-8 0 -15 -5 -15 -11 0 -8 -5 -8 -15 1 -8 7 -15 17 -15 22 0 6 6 6 14 -1 17
-15 28 -1 15 19 -6 10 -9 11 -9 3 0 -7 -6 -12 -12 -10 -8 1 -12 -7 -10 -22 2
-20 0 -22 -13 -11 -13 11 -12 16 6 42 l22 30 23 -26 c13 -14 24 -28 24 -31z
m-2600 -4 c0 -11 -5 -10 -20 4 -11 10 -20 22 -20 27 0 4 9 3 20 -4 11 -7 20
-19 20 -27z m-25 -20 c-3 -6 -14 -11 -23 -11 -13 0 -13 2 4 14 21 15 30 14 19
-3z m2698 -53 c-2 -5 3 -8 11 -8 9 0 16 -4 16 -10 0 -14 -12 -12 -38 6 -12 8
-20 20 -17 25 4 5 -1 12 -9 15 -9 3 -13 10 -10 15 6 10 53 -33 47 -43z m12
-48 c4 -11 11 -18 16 -14 6 3 20 -2 31 -13 12 -10 18 -12 14 -5 -10 16 2 15
19 -2 18 -18 7 -28 -17 -15 -10 5 -23 7 -28 4 -10 -6 -59 42 -60 58 0 16 19 6
25 -13z m41 6 c21 -21 17 -26 -10 -13 -13 7 -22 15 -20 19 7 11 14 10 30 -6z
m34 -76 c0 -5 -4 -10 -10 -10 -5 0 -10 5 -10 10 0 6 5 10 10 10 6 0 10 -4 10
-10z m40 0 c0 -5 -4 -10 -9 -10 -6 0 -13 5 -16 10 -3 6 1 10 9 10 9 0 16 -4
16 -10z m21 -32 c0 -13 3 -18 6 -11 3 8 13 4 29 -12 26 -26 23 -50 -6 -50 -19
0 -39 25 -33 41 2 7 -1 15 -6 19 -6 3 -8 12 -4 18 3 7 -3 3 -15 -7 -12 -11
-22 -14 -22 -8 0 11 27 31 43 32 4 0 7 -10 8 -22z m79 -66 c0 -5 -9 -17 -20
-27 -23 -21 -26 -14 -8 15 13 20 28 27 28 12z m-3215 -13 c11 -17 -1 -21 -15
-4 -8 9 -8 15 -2 15 6 0 14 -5 17 -11z m3248 -19 c8 -11 17 -17 22 -12 5 4 5
2 1 -5 -3 -6 2 -16 11 -22 10 -6 16 -11 13 -11 -31 -7 -39 -7 -34 1 3 5 0 9
-5 9 -6 0 -10 3 -10 8 3 19 -2 33 -11 27 -13 -8 -32 4 -25 16 10 14 23 11 38
-11z m-3299 -22 c-4 -34 -4 -35 -15 -10 -9 24 -4 46 10 38 4 -3 7 -15 5 -28z
m-44 -28 c-14 -11 -20 -20 -15 -20 6 0 2 -5 -7 -11 -10 -5 -15 -16 -12 -24 8
-20 -6 -19 -21 2 -10 13 -8 21 8 40 11 12 27 23 34 23 7 0 12 3 12 8 -3 19 2
25 14 13 10 -10 7 -16 -13 -31z m-239 -44 c5 3 9 -2 9 -11 0 -10 -4 -13 -12
-8 -20 12 -39 12 -31 0 4 -6 0 -8 -10 -4 -10 4 -20 0 -25 -9 -5 -9 -12 -15
-15 -15 -21 3 -27 0 -21 -10 4 -8 9 -7 16 2 8 11 9 11 5 -2 -3 -9 -1 -22 4
-30 8 -12 10 -12 8 1 -3 27 1 41 10 36 7 -5 8 -19 2 -61 0 -5 -15 5 -32 23
-30 32 -30 34 -14 52 10 11 22 17 26 14 5 -3 12 1 15 10 3 8 14 13 25 11 10
-2 19 2 20 8 0 9 2 8 6 -1 2 -6 9 -10 14 -6z m49 -9 c11 3 17 10 14 15 -4 6 3
5 15 -1 16 -9 21 -9 21 1 0 8 3 9 8 3 4 -5 18 -11 32 -11 37 -2 40 -3 40 -14
0 -5 -9 -10 -20 -10 -11 0 -20 5 -20 12 0 6 -3 9 -6 6 -3 -4 2 -19 11 -35 9
-15 14 -20 11 -10 -5 17 5 23 17 11 10 -10 -13 -45 -24 -38 -5 3 -16 0 -24 -6
-12 -10 -16 -9 -21 3 -3 9 -11 14 -18 11 -7 -3 -19 2 -26 11 -8 10 -9 15 -1
15 6 0 11 -5 11 -11 0 -5 5 -7 11 -3 8 4 7 9 -2 15 -8 5 -11 9 -6 10 4 1 12 3
17 4 6 1 15 3 21 4 5 0 7 6 3 12 -4 8 -9 7 -15 -2 -6 -10 -9 -11 -9 -1 0 6 -4
12 -10 12 -5 0 -9 -5 -7 -11 1 -6 -4 -14 -12 -17 -8 -2 -11 0 -7 6 3 5 -2 9
-11 8 -10 0 -18 6 -19 14 0 8 1 10 3 4 2 -7 13 -10 23 -7z m3791 9 c5 3 9 -2
9 -11 0 -10 -4 -13 -12 -8 -20 12 -39 12 -31 0 4 -6 0 -8 -10 -4 -10 4 -20 0
-25 -9 -5 -9 -12 -15 -15 -15 -21 3 -27 0 -21 -10 4 -8 9 -7 16 2 8 11 9 11 5
-2 -3 -9 -1 -22 4 -30 8 -12 10 -12 8 1 -3 27 1 41 10 36 7 -5 8 -19 2 -61 0
-5 -15 5 -32 23 -30 32 -30 34 -14 52 10 11 22 17 26 14 5 -3 12 1 15 10 3 8
14 13 25 11 10 -2 19 2 20 8 0 9 2 8 6 -1 2 -6 9 -10 14 -6z m49 -9 c11 3 18
9 15 12 -2 4 2 8 10 8 12 0 12 -3 2 -15 -6 -8 -11 -18 -9 -21 2 -3 -2 -7 -9
-10 -6 -2 -9 1 -5 7 3 5 -2 9 -11 8 -10 0 -18 6 -19 14 0 8 1 10 3 4 2 -7 13
-10 23 -7z m110 8 c5 3 10 -1 10 -10 0 -9 -5 -13 -10 -10 -6 3 -13 0 -16 -9
-3 -8 -12 -12 -20 -9 -12 4 -12 8 3 19 16 13 15 13 -10 2 -15 -6 -23 -14 -17
-18 6 -4 5 -13 -4 -25 -13 -18 -15 -19 -33 -3 -16 14 -20 15 -37 2 -11 -8 -15
-14 -10 -14 6 0 15 5 22 12 9 9 12 9 12 1 0 -7 -4 -14 -10 -18 -5 -3 -7 -13
-4 -23 3 -9 -4 -4 -16 11 -21 26 -24 27 -40 12 -15 -14 -18 -14 -23 -1 -4 9
-1 18 5 22 7 5 8 2 3 -5 -6 -10 -3 -11 12 -2 11 6 23 8 25 5 3 -2 11 4 19 13
13 16 12 17 -3 5 -14 -11 -18 -10 -28 5 -10 16 -11 16 -6 1 4 -14 0 -17 -16
-14 -12 1 -24 9 -26 16 -3 8 0 10 7 6 7 -4 18 -3 26 4 9 8 15 8 20 0 3 -6 10
-8 15 -5 5 3 19 1 30 -5 23 -12 55 4 44 21 -5 9 9 13 35 10 8 -2 10 2 5 11 -6
10 -5 10 9 0 9 -8 21 -11 27 -7z m50 -8 c11 3 17 10 14 15 -4 6 3 5 16 -2 12
-6 28 -9 36 -6 8 3 14 -1 14 -9 0 -9 -6 -12 -17 -9 -15 5 -15 4 -3 -4 8 -6 18
-8 24 -5 5 4 7 -1 3 -11 -4 -10 -7 -21 -7 -26 0 -12 -58 -6 -72 8 -6 6 -7 12
-2 12 6 0 15 -5 22 -12 9 -9 12 -9 12 1 0 11 3 11 15 1 10 -9 15 -9 15 -1 0
11 -13 15 -40 11 -12 -1 -13 1 -2 11 15 16 16 29 2 29 -5 0 -9 -5 -7 -11 1 -6
-4 -14 -12 -17 -8 -2 -11 0 -7 6 3 5 -2 9 -11 8 -10 0 -18 6 -19 14 0 8 1 10
3 4 2 -7 13 -10 23 -7z m139 -8 c-6 -13 -7 -25 -1 -32 6 -8 1 -20 -16 -37 -16
-16 -23 -19 -19 -9 3 9 0 22 -6 28 -9 9 -6 17 13 31 24 19 24 19 3 13 -17 -4
-23 -1 -23 11 0 13 6 15 26 10 21 -5 25 -4 19 6 -5 9 -4 11 3 6 9 -5 9 -13 1
-27z m-4174 -15 c6 0 15 -2 20 -2 13 -2 17 -40 5 -47 -5 -3 -7 -13 -4 -23 3
-9 -4 -4 -16 11 -21 26 -24 27 -40 12 -15 -14 -18 -14 -23 -1 -4 9 -1 18 5 22
7 5 8 2 3 -5 -6 -10 -3 -11 12 -2 11 6 23 8 25 5 3 -2 11 4 19 13 13 16 12 17
-3 5 -14 -11 -18 -10 -28 5 -10 16 -11 16 -6 1 4 -14 0 -17 -16 -14 -12 1 -24
8 -26 14 -2 7 3 10 11 6 8 -3 18 0 22 5 3 6 12 8 18 4 7 -4 17 -8 22 -9z
m-282 -7 c3 -8 0 -14 -6 -15 -7 0 -21 -3 -32 -5 -11 -2 -27 1 -35 7 -13 9 -13
9 -2 -6 14 -17 9 -38 -9 -38 -6 0 -7 5 -4 10 4 6 2 17 -4 24 -15 18 13 30 39
16 13 -7 21 -6 30 5 15 18 17 18 23 2z m77 -16 c0 -14 -7 -18 -30 -17 -38 2
-42 14 -10 31 29 15 40 11 40 -14z m48 -25 c-11 -26 -28 -35 -28 -16 0 6 5 10
12 10 6 0 3 7 -8 15 -19 15 -19 15 1 30 16 13 20 13 27 1 5 -8 3 -26 -4 -40z
m4185 45 c11 -1 -2 -21 -14 -21 -6 0 -7 6 -3 13 6 9 5 9 -8 0 -8 -7 -18 -10
-21 -6 -4 3 -7 1 -7 -4 0 -16 22 -22 41 -12 10 5 24 0 43 -18 15 -14 25 -28
22 -31 -4 -3 -15 4 -27 16 -15 17 -24 20 -37 13 -11 -6 -24 -6 -36 1 -13 7
-21 7 -29 -2 -9 -8 -8 -10 6 -5 21 9 22 2 3 -14 -12 -10 -17 -8 -25 8 -12 21
-5 51 11 51 6 0 5 -7 -2 -15 -11 -13 -10 -14 3 -9 9 3 19 14 22 24 5 15 17 18
58 11z m-4271 -66 c15 -20 -3 -17 -23 4 -19 21 -22 21 -44 7 -26 -17 -39 -9
-24 14 5 8 9 11 9 7 0 -4 8 -4 17 2 17 9 44 -5 65 -34z"/>
<path d="M1115 3370 c3 -5 8 -10 11 -10 2 0 4 5 4 10 0 6 -5 10 -11 10 -5 0
-7 -4 -4 -10z"/>
<path d="M1167 3319 c7 -7 15 -10 18 -7 3 3 -2 9 -12 12 -14 6 -15 5 -6 -5z"/>
<path d="M1250 3246 c0 -2 8 -10 18 -17 15 -13 16 -12 3 4 -13 16 -21 21 -21
13z"/>
<path d="M2445 1700 c-4 -6 -11 -7 -17 -4 -7 4 -8 2 -4 -5 6 -9 11 -9 22 0 14
11 18 19 10 19 -3 0 -8 -5 -11 -10z"/>
<path d="M2281 1651 c-9 -6 -10 -11 -2 -15 6 -4 11 -1 11 6 0 8 3 9 8 3 7 -10
32 -18 32 -10 0 11 -37 23 -49 16z"/>
<path d="M2156 1531 c-4 -5 -2 -12 3 -15 5 -4 12 -2 15 3 4 5 2 12 -3 15 -5 4
-12 2 -15 -3z"/>
<path d="M3180 1316 c0 -2 8 -10 18 -17 15 -13 16 -12 3 4 -13 16 -21 21 -21
13z"/>
<path d="M1825 1210 c3 -6 1 -10 -6 -10 -7 0 -10 -3 -6 -6 3 -3 13 -2 22 4 16
8 16 9 1 15 -10 4 -15 3 -11 -3z"/>
<path d="M4132 370 c7 -11 17 -20 22 -20 5 0 1 9 -9 20 -10 11 -20 20 -22 20
-2 0 2 -9 9 -20z"/>
<path d="M840 240 c-6 -11 -8 -20 -6 -20 3 0 10 9 16 20 6 11 8 20 6 20 -3 0
-10 -9 -16 -20z"/>
<path d="M750 170 c-10 -6 -11 -13 -5 -19 6 -6 16 -7 25 -1 10 6 11 13 5 19
-6 6 -16 7 -25 1z"/>
<path d="M4555 169 c-4 -6 -5 -12 -2 -15 2 -3 7 2 10 11 7 17 1 20 -8 4z"/>
<path d="M4810 161 c0 -7 -5 -9 -12 -5 -7 5 -8 3 -3 -5 5 -9 10 -10 18 -2 6 6
8 14 4 18 -4 3 -7 1 -7 -6z"/>
<path d="M660 150 c-9 -6 -10 -10 -3 -10 6 0 15 5 18 10 8 12 4 12 -15 0z"/>
<path d="M1795 4770 c-4 -6 -11 -7 -17 -4 -7 4 -8 2 -4 -5 6 -9 11 -9 22 0 14
11 18 19 10 19 -3 0 -8 -5 -11 -10z"/>
<path d="M1833 4773 c4 -3 -1 -11 -10 -18 -13 -9 -13 -14 -3 -20 8 -5 11 -4 7
2 -4 6 0 13 8 17 18 6 20 26 3 26 -6 0 -8 -3 -5 -7z"/>
<path d="M3315 4750 c-4 -6 -12 -7 -18 -4 -7 4 -8 3 -4 -1 13 -15 34 -14 34 1
0 17 -4 18 -12 4z"/>
<path d="M3201 4727 c-7 -7 -7 -15 0 -24 8 -9 8 -13 0 -13 -18 0 -12 -14 14
-33 18 -13 25 -14 31 -5 4 7 4 10 -1 6 -4 -4 -14 -1 -21 7 -19 18 -18 29 2 21
8 -3 12 -2 9 4 -6 9 0 12 35 14 8 1 15 7 15 15 0 18 -69 23 -84 8z m29 -9 c0
6 5 12 10 12 16 0 12 -17 -6 -24 -20 -8 -36 2 -28 16 4 6 10 5 15 -3 6 -10 9
-11 9 -1z"/>
<path d="M1816 4697 c3 -10 9 -15 12 -12 3 3 0 11 -7 18 -10 9 -11 8 -5 -6z"/>
<path d="M3295 4700 c-3 -6 1 -7 9 -4 18 7 21 14 7 14 -6 0 -13 -4 -16 -10z"/>
<path d="M1836 4673 c-6 -14 -5 -15 5 -6 7 7 10 15 7 18 -3 3 -9 -2 -12 -12z"/>
<path d="M3155 4669 c-19 -19 -19 -20 -1 -13 13 5 17 4 12 -4 -4 -6 -2 -20 4
-31 8 -16 6 -20 -8 -23 -14 -3 -13 -5 5 -10 17 -5 21 -2 18 14 -2 10 2 22 10
25 21 7 19 21 -4 28 -12 4 -18 12 -14 21 7 19 2 17 -22 -7z m35 -29 c0 -5 -4
-10 -10 -10 -5 0 -10 5 -10 10 0 6 5 10 10 10 6 0 10 -4 10 -10z"/>
<path d="M3250 4680 c0 -5 5 -10 10 -10 6 0 10 5 10 10 0 6 -4 10 -10 10 -5 0
-10 -4 -10 -10z"/>
<path d="M1855 4660 c-3 -5 -1 -10 4 -10 6 0 11 5 11 10 0 6 -2 10 -4 10 -3 0
-8 -4 -11 -10z"/>
<path d="M3120 4625 c-7 -8 -16 -13 -20 -10 -4 3 -7 -3 -6 -13 0 -10 -5 -16
-14 -14 -10 1 -9 -2 4 -13 11 -8 16 -15 10 -15 -11 0 17 -20 29 -20 5 0 1 7
-7 16 -20 20 -20 31 -1 31 9 0 14 -6 11 -13 -3 -8 0 -11 10 -7 11 4 12 9 4 18
-8 10 -7 16 5 22 14 8 14 11 2 21 -11 10 -17 9 -27 -3z m10 -20 c-7 -9 -15
-13 -18 -10 -3 2 1 11 8 20 7 9 15 13 18 10 3 -2 -1 -11 -8 -20z"/>
<path d="M1910 4586 c0 -2 9 -6 20 -9 11 -3 18 -1 14 4 -5 9 -34 13 -34 5z"/>
<path d="M3156 4562 c-2 -4 4 -8 14 -8 10 0 16 4 14 8 -3 4 -9 8 -14 8 -5 0
-11 -4 -14 -8z"/>
<path d="M3091 4493 c-1 -17 16 -25 25 -12 4 7 3 9 -4 5 -5 -3 -13 0 -15 6 -4
9 -6 10 -6 1z"/>
<path d="M2020 4486 c0 -2 8 -10 18 -17 15 -13 16 -12 3 4 -13 16 -21 21 -21
13z"/>
<path d="M3071 4474 c0 -11 3 -14 6 -6 3 7 2 16 -1 19 -3 4 -6 -2 -5 -13z"/>
<path d="M2075 4431 c-3 -5 0 -13 6 -17 7 -4 9 -3 5 4 -3 5 0 13 6 15 9 4 10
6 1 6 -6 1 -14 -3 -18 -8z"/>
<path d="M2133 4402 c0 -12 5 -22 9 -22 11 0 10 12 -2 30 -7 12 -9 10 -7 -8z"/>
<path d="M2156 4406 c3 -9 9 -15 12 -14 22 2 32 -3 26 -14 -5 -9 -2 -9 9 1 12
9 17 10 17 2 0 -18 -31 -26 -41 -10 -6 10 -8 8 -7 -7 2 -15 7 -20 20 -16 10 2
21 8 24 13 3 5 13 9 22 9 13 0 11 -4 -7 -16 -18 -13 -20 -18 -10 -25 19 -12
29 -11 29 2 0 5 -4 7 -10 4 -5 -3 -10 -2 -10 3 0 6 7 13 16 16 13 5 10 11 -13
35 -16 17 -32 25 -37 20 -5 -4 -17 -4 -27 2 -15 7 -17 6 -13 -5z"/>
<path d="M2903 4405 c0 -8 4 -15 9 -15 4 0 8 4 8 9 0 6 -4 12 -8 15 -5 3 -9
-1 -9 -9z"/>
<path d="M2988 4413 c7 -3 16 -2 19 1 4 3 -2 6 -13 5 -11 0 -14 -3 -6 -6z"/>
<path d="M2975 4380 c-3 -6 1 -7 9 -4 18 7 21 14 7 14 -6 0 -13 -4 -16 -10z"/>
<path d="M2266 4351 c-3 -4 -3 -19 1 -32 3 -13 6 -34 7 -46 0 -11 5 -19 9 -16
5 3 6 16 3 28 -5 20 -3 23 19 20 21 -2 23 0 13 12 -9 11 -13 11 -19 1 -8 -12
-13 -4 -10 15 1 5 -3 6 -9 2 -5 -3 -10 -2 -10 4 0 5 6 12 13 14 9 4 9 6 0 6
-6 1 -14 -3 -17 -8z"/>
<path d="M2174 4322 c4 -3 14 -7 22 -8 9 -1 13 0 10 4 -4 3 -14 7 -22 8 -9 1
-13 0 -10 -4z"/>
<path d="M2895 4319 c-4 -6 -4 -13 -1 -16 3 -4 6 -1 6 6 0 7 5 9 10 6 6 -3 10
-1 10 4 0 14 -17 14 -25 0z"/>
<path d="M2237 4291 c11 -9 18 -23 16 -31 -4 -13 -3 -13 6 0 8 11 7 18 -4 26
-8 6 -13 13 -10 16 3 2 -2 5 -12 5 -14 0 -13 -3 4 -16z"/>
<path d="M2300 4280 c0 -5 8 -7 18 -4 12 4 10 0 -7 -15 -13 -12 -19 -21 -13
-21 5 0 15 7 22 15 7 8 18 15 24 15 6 0 -2 -12 -17 -25 -19 -17 -23 -25 -13
-25 9 0 16 5 16 11 0 5 5 7 12 3 6 -4 8 -3 4 4 -3 6 -1 14 5 18 9 5 7 11 -6
21 -22 15 -45 17 -45 3z"/>
<path d="M2835 4240 c-3 -6 1 -7 9 -4 18 7 21 14 7 14 -6 0 -13 -4 -16 -10z"/>
<path d="M4893 4235 c0 -8 4 -12 9 -9 5 3 6 10 3 15 -9 13 -12 11 -12 -6z"/>
<path d="M250 4236 c0 -2 7 -7 16 -10 8 -3 12 -2 9 4 -6 10 -25 14 -25 6z"/>
<path d="M2790 4210 c-6 -11 -8 -20 -6 -20 3 0 10 9 16 20 6 11 8 20 6 20 -3
0 -10 -9 -16 -20z"/>
<path d="M233 4205 c0 -8 4 -12 9 -9 4 3 8 9 8 15 0 5 -4 9 -8 9 -5 0 -9 -7
-9 -15z"/>
<path d="M266 4199 c3 -5 0 -9 -5 -9 -6 0 -11 -5 -11 -12 0 -6 9 -3 20 7 11
10 20 13 20 7 0 -6 -10 -18 -21 -26 -21 -14 -21 -15 11 -13 19 1 35 -3 37 -11
3 -8 -2 -10 -14 -6 -17 5 -17 5 0 -6 9 -6 15 -15 12 -21 -4 -5 1 -19 9 -31 9
-12 16 -17 16 -11 0 7 -4 15 -10 18 -5 3 -10 11 -10 17 0 6 9 3 20 -7 20 -18
21 -18 14 -1 -7 18 -6 18 20 1 15 -10 29 -15 33 -11 3 3 1 6 -6 6 -7 0 -10 4
-6 9 3 6 -3 15 -14 21 -13 7 -22 7 -26 0 -3 -5 -11 -10 -17 -10 -6 0 -5 7 3
17 12 14 12 15 0 9 -10 -6 -12 -4 -7 11 5 15 -1 25 -21 39 -31 20 -56 27 -47
13z m48 -25 c9 -3 16 -11 16 -17 0 -8 -3 -8 -11 0 -6 6 -18 9 -27 6 -10 -4
-13 -2 -8 5 8 14 9 14 30 6z m71 -72 c-3 -3 -11 0 -18 7 -9 10 -8 11 6 5 10
-3 15 -9 12 -12z"/>
<path d="M4823 4190 c-10 -14 -10 -20 0 -23 7 -2 9 -8 5 -12 -4 -4 -14 -2 -23
5 -10 8 -15 9 -15 1 0 -6 5 -11 10 -11 6 0 10 -5 10 -11 0 -5 -4 -7 -10 -4 -5
3 -10 2 -10 -4 0 -5 6 -12 13 -14 10 -4 10 -6 0 -6 -7 -1 -13 -6 -13 -11 0 -6
11 -3 25 6 13 8 29 13 35 9 5 -3 10 -1 10 5 0 8 -9 10 -27 5 -27 -6 -27 -6
-10 13 11 12 15 26 11 38 -6 16 -3 15 19 -5 15 -13 24 -28 20 -34 -4 -6 -1 -7
6 -3 9 6 9 12 -3 24 -9 11 -12 22 -6 32 13 24 -33 24 -47 0z m37 0 c0 -5 -2
-10 -4 -10 -3 0 -8 5 -11 10 -3 6 -1 10 4 10 6 0 11 -4 11 -10z"/>
<path d="M2750 4180 c0 -5 5 -10 10 -10 6 0 10 5 10 10 0 6 -4 10 -10 10 -5 0
-10 -4 -10 -10z"/>
<path d="M2357 4165 c3 -8 9 -12 14 -9 12 7 11 11 -5 17 -10 4 -13 1 -9 -8z"/>
<path d="M2380 4146 c0 -2 8 -10 18 -17 15 -13 16 -12 3 4 -13 16 -21 21 -21
13z"/>
<path d="M278 4113 c7 -3 16 -2 19 1 4 3 -2 6 -13 5 -11 0 -14 -3 -6 -6z"/>
<path d="M2406 4102 c-3 -5 1 -9 9 -9 8 0 12 4 9 9 -3 4 -7 8 -9 8 -2 0 -6 -4
-9 -8z"/>
<path d="M2672 4080 c0 -14 2 -19 5 -12 2 6 2 18 0 25 -3 6 -5 1 -5 -13z"/>
<path d="M293 4071 c0 -11 5 -18 9 -15 4 3 5 11 1 19 -7 21 -12 19 -10 -4z"/>
<path d="M2630 4076 c0 -2 7 -9 15 -16 13 -11 14 -10 9 4 -5 14 -24 23 -24 12z"/>
<path d="M4790 4071 c0 -7 -5 -9 -12 -5 -7 5 -8 3 -3 -5 5 -9 10 -10 18 -2 6
6 8 14 4 18 -4 3 -7 1 -7 -6z"/>
<path d="M4810 4059 c0 -5 5 -7 10 -4 6 3 10 8 10 11 0 2 -4 4 -10 4 -5 0 -10
-5 -10 -11z"/>
<path d="M2550 4050 c-8 -5 -12 -11 -9 -14 2 -3 11 -1 19 4 8 5 12 11 9 14 -2
3 -11 1 -19 -4z"/>
<path d="M4735 4040 c-11 -17 5 -32 21 -19 8 6 14 15 14 20 0 12 -27 11 -35
-1z m25 -4 c0 -3 -4 -8 -10 -11 -5 -3 -10 -1 -10 4 0 6 5 11 10 11 6 0 10 -2
10 -4z"/>
<path d="M2475 4031 c-3 -5 -2 -12 3 -15 5 -3 9 1 9 9 0 17 -3 19 -12 6z"/>
<path d="M2555 4021 c-6 -11 13 -26 22 -17 4 3 1 6 -6 6 -7 0 -9 5 -6 10 3 6
4 10 1 10 -3 0 -7 -4 -11 -9z"/>
<path d="M392 3990 c-12 -19 -11 -20 8 -8 11 7 20 16 20 20 0 15 -15 8 -28
-12z"/>
<path d="M4676 3994 c-10 -25 1 -29 14 -5 6 12 7 21 1 21 -5 0 -12 -7 -15 -16z"/>
<path d="M4715 4000 c3 -5 11 -10 16 -10 6 0 7 5 4 10 -3 6 -11 10 -16 10 -6
0 -7 -4 -4 -10z"/>
<path d="M435 3989 c-4 -6 -5 -12 -2 -15 2 -3 7 2 10 11 7 17 1 20 -8 4z"/>
<path d="M4660 3926 c0 -2 7 -7 16 -10 8 -3 12 -2 9 4 -6 10 -25 14 -25 6z"/>
<path d="M456 3902 c-3 -4 4 -9 15 -9 23 -2 25 3 4 10 -8 4 -16 3 -19 -1z"/>
<path d="M518 3873 c7 -3 16 -2 19 1 4 3 -2 6 -13 5 -11 0 -14 -3 -6 -6z"/>
<path d="M550 3820 c0 -5 5 -10 11 -10 5 0 7 5 4 10 -3 6 -8 10 -11 10 -2 0
-4 -4 -4 -10z"/>
<path d="M4505 3819 c-4 -6 -4 -13 -1 -16 3 -4 6 -1 6 6 0 7 5 9 10 6 6 -3 10
-1 10 4 0 14 -17 14 -25 0z"/>
<path d="M598 3793 c7 -3 16 -2 19 1 4 3 -2 6 -13 5 -11 0 -14 -3 -6 -6z"/>
<path d="M646 3764 c-5 -14 -4 -15 9 -4 17 14 19 20 6 20 -5 0 -12 -7 -15 -16z"/>
<path d="M4453 3733 c-3 -8 -1 -19 5 -25 8 -8 9 -4 5 12 -4 15 -2 21 5 16 6
-3 13 -3 16 2 3 5 -2 9 -10 9 -9 0 -18 -7 -21 -14z"/>
<path d="M4329 3713 c-8 -9 -9 -14 -3 -10 7 4 11 -5 11 -23 0 -29 -1 -30 -21
-13 -20 17 -20 17 -6 0 12 -16 12 -19 -1 -17 -28 4 -39 0 -39 -15 0 -19 10
-19 37 0 20 14 23 14 33 -2 7 -12 10 -13 7 -3 -2 8 0 23 5 34 7 13 7 16 -1 12
-6 -4 -11 -2 -11 3 0 6 9 11 20 11 11 0 20 4 20 10 0 5 -7 6 -17 3 -10 -4 -14
-2 -9 5 11 18 -11 23 -25 5z"/>
<path d="M4361 3655 c0 -5 3 -16 8 -23 7 -11 9 -10 14 3 4 9 3 14 -2 10 -5 -3
-12 1 -14 7 -3 7 -6 9 -6 3z"/>
<path d="M775 3641 c-2 -5 7 -8 20 -8 14 0 25 2 25 6 0 10 -39 11 -45 2z"/>
<path d="M830 3640 c0 -5 5 -10 11 -10 5 0 7 5 4 10 -3 6 -8 10 -11 10 -2 0
-4 -4 -4 -10z"/>
<path d="M863 3634 c9 -15 -17 -25 -40 -17 -10 3 -6 -3 9 -15 32 -27 35 -27
47 -3 8 14 7 22 -6 32 -9 8 -14 9 -10 3z m11 -29 c-7 -16 -24 -21 -24 -6 0 8
7 13 27 20 1 1 0 -6 -3 -14z"/>
<path d="M4306 3615 c-18 -14 -14 -35 7 -35 8 0 7 3 -2 9 -11 7 -10 11 5 19
10 6 17 13 14 15 -3 3 -13 -1 -24 -8z"/>
<path d="M4335 3601 c-3 -5 -2 -12 3 -15 5 -3 9 1 9 9 0 17 -3 19 -12 6z"/>
<path d="M801 3592 c-1 -7 -6 -10 -13 -6 -6 4 -8 3 -5 -4 8 -12 32 -10 44 3 4
4 3 5 -4 2 -6 -4 -14 -1 -16 5 -4 10 -6 10 -6 0z"/>
<path d="M882 3579 c-15 -23 -15 -29 -1 -29 5 0 8 4 4 9 -3 6 2 14 11 19 9 5
12 12 7 15 -5 3 -14 -3 -21 -14z"/>
<path d="M4280 3574 c0 -6 7 -19 16 -30 14 -18 14 -18 3 6 -14 31 -19 36 -19
24z"/>
<path d="M838 3563 c7 -3 16 -2 19 1 4 3 -2 6 -13 5 -11 0 -14 -3 -6 -6z"/>
<path d="M856 3537 c3 -10 9 -15 12 -12 3 3 0 11 -7 18 -10 9 -11 8 -5 -6z"/>
<path d="M4210 3487 c-10 -19 -9 -20 2 -6 7 9 19 14 26 12 17 -6 15 4 -3 11
-9 3 -19 -3 -25 -17z"/>
<path d="M931 3448 c-13 -22 -13 -23 6 -5 11 9 23 14 26 10 4 -3 7 -1 7 5 0
20 -24 13 -39 -10z"/>
<path d="M984 3382 c4 -3 14 -7 22 -8 9 -1 13 0 10 4 -4 3 -14 7 -22 8 -9 1
-13 0 -10 -4z"/>
<path d="M4110 3381 c0 -6 4 -12 8 -15 5 -3 9 1 9 9 0 8 -4 15 -9 15 -4 0 -8
-4 -8 -9z"/>
<path d="M170 3283 c-28 -94 -31 -104 -32 -120 -1 -7 -4 -13 -8 -13 -3 0 -6
-10 -7 -22 -1 -13 -4 -35 -7 -50 -12 -57 -18 -84 -21 -103 -15 -99 -18 -127
-19 -172 -1 -29 -4 -53 -7 -53 -9 0 -5 -413 4 -427 5 -8 4 -13 -3 -13 -7 0 -8
-6 -2 -17 5 -10 7 -24 5 -30 -3 -7 0 -13 6 -13 6 0 11 -5 11 -11 0 -5 -5 -7
-11 -3 -7 4 -7 -1 1 -16 8 -15 8 -20 1 -16 -6 4 -11 2 -11 -3 0 -6 5 -11 11
-11 5 0 9 -8 8 -17 -3 -31 1 -44 10 -39 5 4 8 -1 7 -10 -1 -8 -9 -20 -17 -25
-11 -7 -11 -9 4 -9 20 0 22 -11 4 -29 -9 -11 -9 -13 1 -7 8 5 12 -1 12 -19 0
-14 4 -24 8 -21 4 2 8 -4 8 -14 0 -10 -4 -17 -7 -14 -4 2 -11 -1 -15 -7 -4 -7
-3 -9 4 -5 12 7 21 -4 27 -35 3 -16 0 -19 -13 -15 -14 5 -14 3 2 -9 10 -8 23
-12 27 -9 5 3 6 -2 3 -11 -4 -8 0 -23 7 -32 12 -15 12 -16 -3 -10 -12 4 -15 2
-11 -9 3 -7 9 -14 14 -14 5 0 9 -11 9 -25 0 -14 5 -25 10 -25 6 0 10 -8 10
-17 0 -14 9 -18 43 -18 29 1 41 5 39 14 -1 7 3 11 10 9 7 -3 13 -10 13 -15 0
-20 12 -24 25 -8 11 14 10 19 -7 36 -19 19 -21 19 -37 4 -10 -11 -16 -12 -16
-4 0 7 -3 9 -6 6 -4 -4 -1 -13 6 -22 8 -9 8 -15 2 -15 -6 0 -14 5 -18 11 -4 8
-9 7 -15 -2 -5 -8 -9 -9 -9 -3 0 13 49 64 62 64 5 0 6 5 3 10 -4 6 -1 9 6 8 7
-2 14 4 14 12 0 8 6 14 13 13 7 -2 12 2 12 7 0 20 16 10 17 -11 2 -20 33 -52
43 -43 2 3 -2 9 -10 14 -16 10 -22 52 -6 47 6 -2 10 -13 9 -23 -1 -18 -1 -18
13 1 8 11 23 19 32 17 14 -2 14 -1 3 7 -11 7 -10 11 6 20 11 5 24 7 28 3 5 -4
5 -1 1 6 -4 6 -4 17 0 24 5 8 10 6 16 -8 8 -18 8 -18 5 1 -2 13 -9 19 -20 17
-12 -2 -15 2 -11 15 5 14 4 15 -4 4 -5 -7 -14 -11 -19 -8 -6 4 -9 -7 -8 -23 2
-30 -8 -39 -20 -20 -4 6 -3 17 2 23 4 7 1 5 -8 -5 -9 -9 -19 -15 -22 -11 -8 7
54 63 71 63 7 0 10 5 7 10 -3 6 -1 10 5 10 6 0 8 4 5 10 -3 6 1 7 9 4 9 -3 16
-10 16 -16 0 -5 -4 -7 -8 -4 -16 10 -9 -29 7 -41 26 -20 35 -15 10 5 -15 13
-19 21 -11 26 7 4 12 3 12 -2 0 -12 38 -23 45 -12 2 4 1 10 -2 14 -4 4 -8 16
-10 27 l-3 20 29 -20 c33 -24 38 -6 8 27 -27 29 -20 38 9 11 14 -13 24 -19 22
-12 -2 6 6 19 17 28 18 15 17 15 -9 0 -26 -16 -28 -16 -23 -1 8 20 -2 48 -15
40 -5 -3 -4 3 3 14 7 12 16 20 19 19 8 -3 75 67 72 75 -1 4 5 5 13 2 11 -4 13
-2 10 9 -4 8 1 17 11 21 20 8 41 -8 25 -18 -6 -4 -11 -2 -11 4 0 6 -5 8 -11 4
-8 -4 -7 -9 2 -15 9 -5 6 -11 -14 -20 -15 -7 -27 -16 -27 -21 0 -5 10 -2 23 7
22 14 37 12 37 -6 0 -5 -6 -6 -14 -3 -20 8 -28 -10 -13 -29 9 -13 16 -14 27
-6 13 9 13 10 -2 6 -9 -4 -19 1 -22 10 -4 11 -2 14 9 10 20 -8 29 11 15 28 -8
10 -9 15 -2 15 6 0 14 -5 17 -11 4 -5 12 -8 18 -6 14 4 18 39 5 54 -7 9 -7 13
0 13 6 0 18 -10 26 -22 9 -12 16 -17 16 -11 0 6 -6 18 -12 25 -23 24 -17 45
13 45 27 0 27 -1 12 -26 -14 -25 -14 -25 2 -6 9 11 21 19 26 17 6 -1 7 3 3 10
-4 7 -9 23 -10 36 -2 19 0 21 12 11 8 -6 13 -18 12 -27 -2 -8 3 -16 10 -18 7
-1 8 0 3 2 -6 3 -7 12 -4 20 5 13 7 13 15 2 8 -10 9 -10 5 2 -2 8 -9 14 -15
13 -6 -2 -10 6 -9 17 1 11 6 19 12 16 5 -2 19 4 29 13 18 15 19 15 13 -2 -4
-10 -7 -23 -7 -28 0 -6 -5 -7 -12 -3 -7 4 -8 3 -4 -4 14 -24 32 -1 31 41 -1
34 -5 41 -18 39 -24 -4 -21 15 4 28 11 7 18 14 15 17 -3 3 2 12 12 20 10 9 11
12 2 7 -12 -6 -12 -4 1 12 15 17 17 51 7 94 -2 12 -743 760 -752 760 -2 0 -13
-35 -26 -77z m750 -869 c0 -1 -8 -10 -18 -22 -14 -16 -22 -18 -30 -10 -12 12
-17 0 -13 -26 1 -5 -5 -6 -12 -3 -8 3 -24 -5 -36 -19 -21 -24 -15 -34 7 -12 8
8 12 8 12 1 0 -13 -28 -25 -41 -17 -5 3 -17 0 -26 -5 -10 -6 -12 -11 -5 -11
20 0 13 -17 -10 -24 -19 -5 -20 -8 -8 -16 17 -11 23 -53 6 -47 -6 2 -11 11
-11 19 0 8 -6 22 -13 30 -10 13 -9 16 9 21 11 3 18 10 15 16 -4 5 3 15 15 22
29 15 84 72 81 82 -1 5 2 6 8 2 5 -3 13 0 16 8 3 8 16 14 30 13 13 0 24 -1 24
-2z m-340 -335 c0 -6 -6 -9 -14 -6 -30 12 -35 -15 -8 -40 l27 -25 -27 16 c-16
9 -29 12 -33 6 -3 -5 -13 -7 -23 -4 -9 3 -6 -2 8 -10 14 -8 21 -15 16 -16 -5
0 -3 -7 4 -15 21 -26 0 -16 -25 11 -19 21 -22 30 -14 45 5 11 13 17 18 15 4
-3 14 4 21 15 15 20 50 26 50 8z m-134 -166 c-10 -10 -19 5 -10 18 6 11 8 11
12 0 2 -7 1 -15 -2 -18z m-40 -15 c12 -13 -7 -30 -21 -18 -7 6 -17 10 -21 9
-21 -3 -28 2 -14 11 15 10 45 8 56 -2z m-95 -150 c-9 -9 -12 -9 -7 -1 3 6 2
14 -4 18 -5 3 -10 11 -10 18 0 6 7 4 17 -6 14 -14 15 -19 4 -29z"/>
<path d="M506 2038 c3 -5 10 -6 15 -3 13 9 11 12 -6 12 -8 0 -12 -4 -9 -9z"/>
<path d="M4095 3351 c-3 -5 -2 -12 3 -15 5 -3 9 1 9 9 0 17 -3 19 -12 6z"/>
<path d="M4921 3351 c-1 -8 -3 -12 -6 -9 -7 6 -201 -185 -197 -194 2 -5 -1 -8
-6 -8 -19 0 -529 -518 -540 -548 -11 -33 -6 -95 9 -100 5 -2 9 -10 9 -18 0 -8
5 -14 10 -14 6 0 10 -7 10 -16 0 -8 5 -12 10 -9 6 3 10 -4 10 -16 0 -19 -2
-20 -17 -8 -14 12 -15 12 -9 0 5 -8 3 -17 -5 -23 -10 -7 -9 -8 6 -3 40 15 69
5 106 -36 36 -40 44 -69 21 -77 -7 -2 -9 6 -6 22 4 26 -10 44 -21 26 -3 -5
-11 -10 -18 -10 -8 0 -8 3 0 11 15 15 4 51 -14 45 -8 -3 -12 -2 -9 2 3 5 -5 7
-17 6 -12 -1 -26 -3 -32 -3 -5 -1 -4 -5 4 -10 8 -5 25 -8 38 -6 14 1 22 -2 20
-9 -2 -6 -14 -10 -26 -9 -11 2 -21 -2 -21 -9 0 -6 3 -8 6 -5 10 10 44 -12 40
-26 -1 -6 -1 -8 2 -4 2 5 19 -7 37 -25 28 -30 38 -35 80 -34 42 0 49 -3 52
-22 1 -12 -2 -22 -7 -22 -6 0 -10 7 -10 15 0 8 -4 15 -10 15 -5 0 -7 -6 -4
-13 3 -8 -4 -13 -17 -14 -15 -1 -18 1 -10 10 7 10 3 13 -17 14 -18 1 -22 -1
-11 -5 9 -4 15 -15 13 -24 -3 -21 7 -23 24 -6 7 7 12 8 12 2 0 -6 -3 -14 -7
-18 -14 -14 -11 -35 4 -29 8 3 11 8 5 12 -15 9 9 36 32 38 11 1 28 -4 38 -11
17 -12 17 -14 -2 -31 -11 -10 -20 -13 -20 -7 0 6 5 14 10 17 6 4 8 11 4 16 -3
5 -10 7 -15 3 -5 -3 -7 -10 -4 -15 4 -5 2 -9 -4 -9 -5 0 -11 6 -14 13 -2 6 -4
-1 -4 -17 0 -15 2 -24 6 -18 3 5 19 -4 35 -21 29 -29 29 -29 5 -23 -18 5 -20
5 -8 -3 9 -6 26 -8 38 -6 17 3 21 0 17 -10 -3 -9 0 -12 10 -8 10 3 12 0 8 -10
-3 -8 -1 -18 5 -22 17 -10 13 -25 -4 -19 -8 4 -15 2 -15 -4 0 -20 35 -5 36 16
1 12 -3 19 -7 16 -5 -3 -9 0 -9 6 0 6 7 10 17 8 19 -4 26 -37 11 -55 -7 -9 -6
-14 6 -19 9 -3 13 -10 10 -15 -3 -5 2 -6 12 -2 14 5 13 8 -7 19 -22 12 -19 20
6 14 36 -8 53 -6 48 6 -2 7 -15 11 -29 8 -23 -4 -24 -3 -14 17 7 12 8 19 2 15
-12 -7 -34 18 -24 29 4 5 -2 5 -12 1 -13 -4 -25 0 -38 14 -11 11 -23 18 -29
15 -5 -4 -9 -2 -9 4 0 15 18 23 25 10 4 -5 13 -8 20 -5 7 2 23 -6 36 -20 12
-13 18 -24 13 -25 -5 0 1 -4 14 -9 12 -5 22 -17 22 -25 0 -9 4 -14 9 -10 13 7
24 -13 26 -47 1 -17 -3 -27 -9 -25 -6 3 -10 10 -9 16 4 15 -6 14 -23 -3 -18
-19 -18 -32 0 -17 11 9 17 6 30 -15 11 -16 23 -23 33 -20 10 4 13 2 10 -8 -4
-11 -1 -13 10 -9 12 5 14 3 8 -8 -8 -12 -6 -12 8 0 10 8 20 11 23 8 3 -3 -3
-12 -15 -19 -25 -15 -28 -30 -4 -21 11 4 14 3 9 -5 -8 -13 -6 -14 36 -16 15
-1 25 1 22 5 -2 4 1 9 8 11 7 3 5 7 -6 11 -11 5 -15 3 -10 -5 5 -8 2 -9 -10
-5 -10 4 -15 3 -11 -3 3 -6 2 -10 -3 -10 -8 0 -22 22 -22 34 0 6 57 -1 69 -8
7 -5 10 -15 7 -23 -4 -11 -1 -13 14 -8 14 4 20 2 18 -7 -2 -7 3 -12 10 -10 8
1 11 -2 7 -7 -3 -6 4 -15 15 -21 21 -11 19 -30 -3 -30 -7 0 -6 4 3 11 12 8 10
9 -7 4 -18 -5 -22 -3 -17 8 3 8 -1 19 -8 23 -17 11 -77 14 -83 5 -2 -4 14 -7
37 -7 23 0 43 -4 45 -10 2 -7 -11 -11 -36 -10 -22 1 -37 -2 -34 -7 2 -4 10 -6
16 -4 7 2 18 -3 25 -10 9 -8 23 -11 36 -7 l21 7 -20 -24 -20 -23 29 22 c16 12
43 22 60 22 17 0 26 4 21 8 -6 4 -10 13 -9 20 1 6 2 17 3 23 0 5 5 7 11 4 6
-3 7 1 4 9 -3 9 -1 16 5 16 6 0 11 5 11 11 0 5 -6 7 -12 3 -9 -6 -9 -3 0 9 8
9 11 21 7 27 -3 5 -2 10 4 10 5 0 11 -6 14 -12 3 -7 4 -3 4 9 -1 12 -5 19 -9
17 -11 -7 10 46 25 65 7 9 7 12 1 8 -6 -3 -11 1 -11 9 0 9 6 13 14 10 9 -4 11
-2 6 7 -11 17 -13 37 -3 37 4 0 11 7 14 16 6 15 4 15 -11 3 -16 -13 -16 -12 1
15 10 16 13 25 7 22 -15 -9 -3 23 18 49 15 18 15 19 -2 6 -15 -12 -17 -12 -11
5 4 10 12 25 18 33 8 11 8 13 -2 7 -13 -8 -13 19 1 42 5 6 5 12 1 12 -4 0 1
10 12 22 13 16 14 19 2 10 -10 -8 -19 -9 -22 -3 -3 5 -1 11 5 13 5 2 10 22 11
46 0 24 5 42 12 42 7 0 7 3 1 8 -12 8 -14 112 -2 112 5 0 5 5 2 11 -4 6 -8 57
-8 115 -1 62 -5 104 -11 104 -6 0 -5 5 1 11 7 7 8 21 4 33 -3 11 -6 33 -5 49
0 15 -2 27 -5 27 -3 0 -6 17 -6 38 1 20 -4 40 -10 45 -6 4 -5 10 5 17 10 7 11
10 2 10 -8 0 -11 9 -8 25 3 14 1 25 -4 25 -5 0 -8 8 -8 18 0 9 -3 31 -7 47 -4
17 -9 44 -12 60 -2 17 -8 39 -13 50 -4 11 -19 56 -33 100 -14 44 -26 74 -26
66z m-604 -1051 c-1 -12 -5 -16 -10 -11 -5 5 -6 14 -3 20 11 16 15 13 13 -9z
m53 -11 c0 -5 5 -7 12 -3 7 4 8 3 4 -5 -4 -6 -11 -9 -16 -6 -5 3 -11 1 -14 -4
-4 -5 5 -8 19 -7 14 2 29 -2 34 -8 7 -8 0 -11 -24 -11 -41 1 -52 10 -37 28 7
8 9 17 5 20 -3 4 -1 7 5 7 7 0 12 -5 12 -11z m153 -154 c8 -8 18 -11 22 -7 5
4 5 1 0 -6 -5 -9 -11 -10 -17 -4 -7 7 -16 7 -29 -1 -23 -14 -36 -2 -19 18 16
19 25 19 43 0z m187 -182 c0 -7 5 -13 10 -13 6 0 10 -5 10 -11 0 -5 -5 -7 -12
-3 -7 4 -8 3 -4 -5 6 -9 11 -9 24 1 12 10 14 10 8 1 -4 -8 -2 -13 6 -13 8 0
14 -9 15 -20 1 -11 -3 -20 -8 -20 -6 0 -8 4 -5 9 3 5 -1 14 -9 21 -12 10 -15
10 -15 0 0 -10 -5 -9 -17 2 -10 9 -23 13 -30 11 -14 -5 -27 14 -14 22 6 3 8
12 5 20 -4 9 1 13 15 12 12 -1 21 -7 21 -14z m135 -193 c3 -5 1 -10 -4 -10 -6
0 -11 5 -11 10 0 6 2 10 4 10 3 0 8 -4 11 -10z"/>
<path d="M4684 1941 c0 -11 5 -17 13 -14 10 4 11 9 2 19 -15 18 -15 18 -15 -5z"/>
<path d="M1075 3300 c3 -5 8 -10 11 -10 2 0 4 5 4 10 0 6 -5 10 -11 10 -5 0
-7 -4 -4 -10z"/>
<path d="M4045 3300 c-3 -6 1 -7 9 -4 18 7 21 14 7 14 -6 0 -13 -4 -16 -10z"/>
<path d="M1115 3280 c3 -5 8 -10 11 -10 2 0 4 5 4 10 0 6 -5 10 -11 10 -5 0
-7 -4 -4 -10z"/>
<path d="M1136 3262 c-2 -4 -2 -12 2 -17 10 -14 32 -17 32 -5 0 6 -7 10 -16
10 -8 0 -12 5 -9 10 3 6 4 10 1 10 -3 0 -7 -4 -10 -8z"/>
<path d="M4005 3260 c-3 -6 1 -7 9 -4 18 7 21 14 7 14 -6 0 -13 -4 -16 -10z"/>
<path d="M3960 3246 c0 -2 8 -10 18 -17 15 -13 16 -12 3 4 -13 16 -21 21 -21
13z"/>
<path d="M1176 3213 c-4 -9 -2 -21 3 -26 6 -6 9 -2 8 9 -1 11 4 18 11 17 6 -2
12 2 12 7 0 17 -27 11 -34 -7z"/>
<path d="M3881 3164 c0 -11 3 -14 6 -6 3 7 2 16 -1 19 -3 4 -6 -2 -5 -13z"/>
<path d="M1240 3146 c0 -2 7 -7 16 -10 8 -3 12 -2 9 4 -6 10 -25 14 -25 6z"/>
<path d="M3820 3138 c0 -4 7 -8 15 -8 8 0 15 4 15 8 0 5 -7 9 -15 9 -8 0 -15
-4 -15 -9z"/>
<path d="M1296 3115 c4 -8 8 -15 10 -15 2 0 4 7 4 15 0 8 -4 15 -10 15 -5 0
-7 -7 -4 -15z"/>
<path d="M1276 3107 c3 -10 9 -15 12 -12 3 3 0 11 -7 18 -10 9 -11 8 -5 -6z"/>
<path d="M1387 3096 c-4 -10 -1 -13 8 -9 8 3 12 9 9 14 -7 12 -11 11 -17 -5z"/>
<path d="M1313 3075 c0 -18 24 -28 33 -13 4 7 3 8 -4 4 -7 -4 -12 -1 -12 8 0
9 -4 16 -8 16 -5 0 -9 -7 -9 -15z"/>
<path d="M3772 3065 c4 -4 0 -13 -9 -20 -13 -10 -14 -13 -2 -20 8 -5 11 -5 7
0 -4 4 0 13 9 20 13 10 14 13 2 20 -8 5 -11 5 -7 0z"/>
<path d="M3734 3023 c3 -7 -1 -13 -11 -15 -15 -3 -15 -5 3 -10 22 -6 28 12 9
29 -4 4 -5 3 -1 -4z"/>
<path d="M1415 2981 c-8 -14 10 -22 31 -14 12 4 15 3 10 -5 -6 -11 0 -14 20
-11 4 0 11 -5 15 -13 5 -7 9 -8 9 -3 0 6 -5 17 -10 25 -9 13 -10 13 -10 0 -1
-12 -3 -11 -11 3 -7 12 -17 16 -31 11 -14 -4 -18 -2 -14 5 4 6 5 11 2 11 -3 0
-7 -4 -11 -9z"/>
<path d="M3695 2981 c-3 -5 0 -13 6 -17 7 -4 9 -3 5 4 -3 5 0 13 6 15 9 4 10
6 1 6 -6 1 -14 -3 -18 -8z"/>
<path d="M3635 2970 c3 -5 8 -10 11 -10 2 0 4 5 4 10 0 6 -5 10 -11 10 -5 0
-7 -4 -4 -10z"/>
<path d="M3676 2933 c-6 -14 -5 -15 5 -6 7 7 10 15 7 18 -3 3 -9 -2 -12 -12z"/>
<path d="M1550 2919 c0 -5 5 -7 10 -4 6 3 10 8 10 11 0 2 -4 4 -10 4 -5 0 -10
-5 -10 -11z"/>
<path d="M1513 2875 c0 -7 6 -11 14 -8 7 3 13 6 13 8 0 2 -6 5 -13 8 -8 3 -14
-1 -14 -8z"/>
<path d="M3570 2886 c0 -2 7 -7 16 -10 8 -3 12 -2 9 4 -6 10 -25 14 -25 6z"/>
<path d="M3472 2838 c-7 -9 -6 -19 4 -32 13 -19 14 -19 14 -2 0 15 3 16 14 7
11 -9 16 -9 22 0 4 7 3 9 -4 5 -6 -3 -17 3 -25 14 -11 16 -16 18 -25 8z"/>
<path d="M1600 2815 c-11 -13 -10 -14 4 -9 9 3 16 10 16 15 0 13 -6 11 -20 -6z"/>
<path d="M1630 2798 c0 -4 4 -8 9 -8 6 0 12 4 15 8 3 5 -1 9 -9 9 -8 0 -15 -4
-15 -9z"/>
<path d="M3540 2800 c-9 -6 -10 -10 -3 -10 6 0 15 5 18 10 8 12 4 12 -15 0z"/>
<path d="M1590 2776 c7 -7 13 -7 20 0 6 6 3 10 -10 10 -13 0 -16 -4 -10 -10z"/>
<path d="M1655 2780 c-4 -6 -10 -8 -14 -6 -4 3 -8 -1 -8 -9 0 -8 4 -12 8 -9 4
2 9 1 12 -3 2 -5 2 -3 1 4 -2 7 1 15 6 18 6 4 10 2 10 -3 0 -6 8 -13 17 -16
15 -6 15 -4 -2 14 -21 23 -22 23 -30 10z"/>
<path d="M3490 2768 c-10 -21 -10 -21 3 -6 8 10 18 14 22 10 5 -4 5 -1 1 6
-10 17 -14 15 -26 -10z"/>
<path d="M1670 2741 c0 -5 7 -12 16 -15 14 -5 15 -4 4 9 -14 17 -20 19 -20 6z"/>
<path d="M3475 2729 c-4 -6 -5 -12 -2 -15 2 -3 7 2 10 11 7 17 1 20 -8 4z"/>
<path d="M1673 2705 c0 -8 4 -15 9 -15 4 0 8 4 8 9 0 6 -4 12 -8 15 -5 3 -9
-1 -9 -9z"/>
<path d="M3437 2695 c-8 -8 -17 -12 -21 -10 -3 3 -4 2 -1 -2 3 -4 13 -8 21 -9
9 -1 13 0 10 3 -3 4 -1 12 5 20 15 18 4 17 -14 -2z"/>
<path d="M4175 2420 c-3 -5 -1 -10 4 -10 6 0 11 5 11 10 0 6 -2 10 -4 10 -3 0
-8 -4 -11 -10z"/>
<path d="M946 2382 c-3 -5 1 -9 9 -9 8 0 12 4 9 9 -3 4 -7 8 -9 8 -2 0 -6 -4
-9 -8z"/>
<path d="M4176 2358 c3 -5 10 -6 15 -3 13 9 11 12 -6 12 -8 0 -12 -4 -9 -9z"/>
<path d="M4195 2321 c-3 -5 -2 -12 3 -15 5 -3 9 1 9 9 0 17 -3 19 -12 6z"/>
<path d="M838 2263 c7 -3 16 -2 19 1 4 3 -2 6 -13 5 -11 0 -14 -3 -6 -6z"/>
<path d="M4270 2259 c0 -5 4 -8 9 -5 5 3 14 -1 21 -9 7 -8 18 -15 24 -15 12 0
-34 39 -46 40 -5 0 -8 -5 -8 -11z"/>
<path d="M810 2219 c0 -5 5 -7 10 -4 6 3 10 8 10 11 0 2 -4 4 -10 4 -5 0 -10
-5 -10 -11z"/>
<path d="M4331 2204 c0 -11 3 -14 6 -6 3 7 2 16 -1 19 -3 4 -6 -2 -5 -13z"/>
<path d="M757 2176 c-10 -8 -14 -16 -10 -19 5 -3 14 3 21 14 14 22 13 23 -11
5z"/>
<path d="M621 2145 c-13 -19 -28 -32 -34 -28 -6 3 -7 1 -3 -5 11 -18 21 -14
36 13 9 18 16 22 21 13 4 -7 0 -17 -9 -24 -9 -7 -13 -16 -9 -21 13 -13 38 27
28 46 -5 9 -6 22 -4 29 8 21 -1 13 -26 -23z"/>
<path d="M668 2145 c5 -11 12 -27 15 -35 5 -13 6 -13 6 1 1 8 -6 24 -15 35
-15 19 -15 19 -6 -1z"/>
<path d="M720 2120 c-9 -6 -10 -10 -3 -10 6 0 15 5 18 10 8 12 4 12 -15 0z"/>
<path d="M4435 2100 c3 -5 8 -10 11 -10 2 0 4 5 4 10 0 6 -5 10 -11 10 -5 0
-7 -4 -4 -10z"/>
<path d="M650 2078 c0 -4 4 -8 9 -8 6 0 12 4 15 8 3 5 -1 9 -9 9 -8 0 -15 -4
-15 -9z"/>
<path d="M4555 2080 c3 -5 8 -10 11 -10 2 0 4 5 4 10 0 6 -5 10 -11 10 -5 0
-7 -4 -4 -10z"/>
<path d="M530 1939 c0 -5 5 -7 10 -4 6 3 10 8 10 11 0 2 -4 4 -10 4 -5 0 -10
-5 -10 -11z"/>
<path d="M4575 1931 c-3 -5 -2 -12 3 -15 5 -3 9 1 9 9 0 17 -3 19 -12 6z"/>
<path d="M4633 1895 c0 -8 4 -12 9 -9 4 3 8 9 8 15 0 5 -4 9 -8 9 -5 0 -9 -7
-9 -15z"/>
<path d="M110 1896 c0 -2 8 -10 18 -17 15 -13 16 -12 3 4 -13 16 -21 21 -21
13z"/>
<path d="M470 1879 c0 -5 5 -7 10 -4 6 3 10 8 10 11 0 2 -4 4 -10 4 -5 0 -10
-5 -10 -11z"/>
<path d="M407 1847 c-3 -8 1 -14 8 -14 7 0 11 6 8 14 -3 7 -6 13 -8 13 -2 0
-5 -6 -8 -13z"/>
<path d="M311 1834 c-18 -13 -20 -18 -10 -25 8 -5 23 -6 34 -2 17 5 18 4 7
-10 -9 -10 -10 -17 -2 -22 9 -6 14 1 11 18 0 4 5 7 12 7 8 0 7 4 -3 10 -8 5
-23 7 -32 4 -10 -3 -18 -1 -18 5 0 6 7 11 15 11 8 0 15 5 15 10 0 13 -2 13
-29 -6z"/>
<path d="M4660 1846 c0 -2 8 -10 18 -17 15 -13 16 -12 3 4 -13 16 -21 21 -21
13z"/>
<path d="M375 1789 c-4 -6 -5 -12 -2 -15 2 -3 7 2 10 11 7 17 1 20 -8 4z"/>
<path d="M4940 1786 c0 -2 8 -10 18 -17 15 -13 16 -12 3 4 -13 16 -21 21 -21
13z"/>
<path d="M160 1756 c0 -8 4 -17 9 -20 5 -4 7 3 4 14 -6 23 -13 26 -13 6z"/>
<path d="M4795 1731 c-3 -5 -2 -12 3 -15 5 -3 9 1 9 9 0 17 -3 19 -12 6z"/>
<path d="M4911 1728 c-1 -20 14 -24 25 -6 4 6 3 8 -4 4 -5 -3 -13 0 -15 6 -3
8 -6 6 -6 -4z"/>
<path d="M146 1722 c-3 -5 1 -9 9 -9 8 0 12 4 9 9 -3 4 -7 8 -9 8 -2 0 -6 -4
-9 -8z"/>
<path d="M185 1720 c-3 -5 5 -6 17 -2 12 3 19 1 15 -4 -3 -6 4 -16 16 -24 20
-12 21 -12 8 4 -8 9 -11 19 -7 23 3 4 13 -2 22 -13 15 -18 15 -18 10 0 -5 13
-2 17 9 12 8 -3 15 -2 15 3 0 10 -99 11 -105 1z"/>
<path d="M4872 1714 c-12 -8 -22 -21 -21 -27 0 -9 2 -9 5 0 3 7 13 9 22 6 15
-4 15 -3 2 6 -13 9 -13 11 3 11 9 0 17 5 17 10 0 13 -2 13 -28 -6z"/>
<path d="M193 1684 c0 -16 13 -19 21 -5 3 5 0 11 -7 14 -8 3 -14 -1 -14 -9z"/>
<path d="M4896 1684 c-4 -9 -4 -19 -1 -22 3 -3 5 0 5 7 0 7 5 9 10 6 6 -4 7
-11 4 -17 -4 -7 -2 -8 5 -4 9 6 9 12 -1 24 -7 10 -13 18 -14 20 -1 2 -4 -5 -8
-14z"/>
<path d="M216 1661 c-3 -4 4 -17 17 -27 22 -19 22 -19 4 2 -9 11 -14 24 -10
27 3 4 4 7 0 7 -3 0 -8 -4 -11 -9z"/>
<path d="M2550 1629 c0 -5 4 -8 8 -5 5 3 15 -4 22 -15 8 -10 19 -19 24 -19 5
0 -1 11 -14 25 -25 26 -40 32 -40 14z"/>
<path d="M2656 1602 c-3 -5 1 -9 9 -9 8 0 15 4 15 9 0 4 -4 8 -9 8 -6 0 -12
-4 -15 -8z"/>
<path d="M2376 1582 c-2 -4 0 -14 6 -22 8 -12 9 -11 4 4 -5 15 -2 18 19 14 13
-3 22 -1 19 3 -7 11 -41 12 -48 1z"/>
<path d="M2510 1576 c7 -7 13 -7 20 0 6 6 3 10 -10 10 -13 0 -16 -4 -10 -10z"/>
<path d="M2690 1580 c0 -5 5 -10 11 -10 5 0 7 5 4 10 -3 6 -8 10 -11 10 -2 0
-4 -4 -4 -10z"/>
<path d="M2346 1563 c-6 -14 -5 -15 5 -6 7 7 10 15 7 18 -3 3 -9 -2 -12 -12z"/>
<path d="M2786 1561 c-4 -5 3 -7 14 -4 23 6 26 13 6 13 -8 0 -17 -4 -20 -9z"/>
<path d="M2295 1539 c-4 -6 -5 -12 -2 -15 2 -3 7 2 10 11 7 17 1 20 -8 4z"/>
<path d="M2816 1518 c3 -5 10 -6 15 -3 13 9 11 12 -6 12 -8 0 -12 -4 -9 -9z"/>
<path d="M2110 1506 c0 -2 7 -9 15 -16 13 -11 14 -10 9 4 -5 14 -24 23 -24 12z"/>
<path d="M2921 1484 c0 -11 3 -14 6 -6 3 7 2 16 -1 19 -3 4 -6 -2 -5 -13z"/>
<path d="M2195 1480 c3 -5 8 -10 11 -10 2 0 4 5 4 10 0 6 -5 10 -11 10 -5 0
-7 -4 -4 -10z"/>
<path d="M2046 1428 c-13 -30 -19 -74 -8 -63 3 2 14 0 26 -6 19 -9 19 -8 -1 7
-25 18 -30 39 -10 51 10 7 20 43 11 43 -2 0 -10 -15 -18 -32z"/>
<path d="M2075 1440 c-3 -5 -1 -10 4 -10 6 0 11 5 11 10 0 6 -2 10 -4 10 -3 0
-8 -4 -11 -10z"/>
<path d="M2140 1440 c-12 -7 -10 -9 8 -7 12 0 22 5 22 9 0 11 -12 10 -30 -2z"/>
<path d="M2186 1438 c3 -5 10 -6 15 -3 13 9 11 12 -6 12 -8 0 -12 -4 -9 -9z"/>
<path d="M2061 1406 c-9 -10 -8 -15 3 -19 11 -4 13 -1 9 10 -4 11 -2 14 5 9 7
-4 12 -2 12 3 0 15 -15 14 -29 -3z"/>
<path d="M2116 1403 c-6 -14 -5 -15 5 -6 7 7 10 15 7 18 -3 3 -9 -2 -12 -12z"/>
<path d="M2995 1410 c-4 -6 -11 -7 -17 -4 -7 4 -8 2 -4 -5 6 -9 12 -9 24 1 10
7 19 14 21 15 2 2 -1 3 -7 3 -6 0 -14 -5 -17 -10z"/>
<path d="M3006 1382 c-3 -5 1 -9 9 -9 8 0 12 4 9 9 -3 4 -7 8 -9 8 -2 0 -6 -4
-9 -8z"/>
<path d="M2046 1318 c3 -5 10 -6 15 -3 13 9 11 12 -6 12 -8 0 -12 -4 -9 -9z"/>
<path d="M3115 1280 c-3 -5 -1 -10 4 -10 6 0 11 5 11 10 0 6 -2 10 -4 10 -3 0
-8 -4 -11 -10z"/>
<path d="M1940 1264 c0 -5 9 -15 20 -21 15 -10 21 -10 26 0 4 6 3 9 -1 4 -5
-4 -17 0 -27 10 -10 9 -18 12 -18 7z"/>
<path d="M3150 1240 c0 -5 5 -10 11 -10 5 0 7 5 4 10 -3 6 -8 10 -11 10 -2 0
-4 -4 -4 -10z"/>
<path d="M3175 1220 c-3 -5 -1 -10 4 -10 6 0 11 5 11 10 0 6 -2 10 -4 10 -3 0
-8 -4 -11 -10z"/>
<path d="M1917 1213 c-4 -3 -7 -11 -7 -17 0 -6 5 -5 12 2 6 6 9 14 7 17 -3 3
-9 2 -12 -2z"/>
<path d="M3218 1213 c6 -2 12 -12 12 -21 0 -15 2 -15 10 -2 9 15 -4 30 -25 29
-5 0 -4 -3 3 -6z"/>
<path d="M3265 1204 c-13 -13 -14 -19 -4 -25 7 -4 17 -5 21 -3 4 3 8 -3 8 -14
0 -21 36 -59 47 -49 8 8 33 -11 33 -25 0 -6 -7 -5 -15 2 -9 7 -18 10 -22 6 -3
-3 -1 -6 5 -6 6 0 10 -6 8 -12 -1 -7 -1 -9 2 -5 2 5 13 1 23 -9 11 -10 19 -12
19 -6 0 7 5 12 10 12 16 0 12 -18 -10 -40 -20 -20 -16 -27 7 -12 7 4 14 19 15
32 3 21 -1 25 -21 22 -20 -2 -22 0 -11 13 12 14 15 14 36 0 33 -21 36 -19 11
9 -14 16 -26 21 -31 15 -15 -14 -24 -11 -22 9 0 11 -6 16 -17 16 -12 -1 -16 3
-13 15 3 9 1 23 -4 31 -6 10 -10 11 -10 3 0 -7 -5 -13 -11 -13 -5 0 -8 4 -5 9
3 4 -3 16 -13 25 -17 16 -20 16 -36 0z m35 -8 c9 -12 8 -15 -9 -13 -21 1 -26
8 -14 20 9 9 9 9 23 -7z m40 -38 c0 -4 -5 -8 -11 -8 -8 0 -8 -5 1 -15 8 -10 9
-15 2 -15 -9 0 -32 30 -32 42 0 2 9 4 20 4 11 0 20 -4 20 -8z m30 -38 c0 -5
-2 -10 -4 -10 -3 0 -8 5 -11 10 -3 6 -1 10 4 10 6 0 11 -4 11 -10z"/>
<path d="M1855 1160 c3 -5 8 -10 11 -10 2 0 4 5 4 10 0 6 -5 10 -11 10 -5 0
-7 -4 -4 -10z"/>
<path d="M1885 1160 c-3 -6 1 -7 9 -4 18 7 21 14 7 14 -6 0 -13 -4 -16 -10z"/>
<path d="M3245 1160 c3 -5 8 -10 11 -10 2 0 4 5 4 10 0 6 -5 10 -11 10 -5 0
-7 -4 -4 -10z"/>
<path d="M3270 1141 c0 -6 4 -13 10 -16 6 -3 7 1 4 9 -7 18 -14 21 -14 7z"/>
<path d="M1855 1131 c-3 -5 -2 -12 3 -15 5 -3 9 1 9 9 0 17 -3 19 -12 6z"/>
<path d="M3290 1099 c0 -5 5 -7 10 -4 6 3 10 8 10 11 0 2 -4 4 -10 4 -5 0 -10
-5 -10 -11z"/>
<path d="M1770 1039 c0 -5 5 -7 10 -4 6 3 10 8 10 11 0 2 -4 4 -10 4 -5 0 -10
-5 -10 -11z"/>
<path d="M1735 1019 c-4 -6 -5 -12 -2 -15 2 -3 7 2 10 11 7 17 1 20 -8 4z"/>
<path d="M1697 1006 c-4 -10 -3 -15 3 -11 6 3 10 1 10 -6 0 -7 3 -10 6 -6 3 3
2 13 -4 22 -8 16 -9 16 -15 1z"/>
<path d="M1666 965 c-11 -8 -16 -15 -10 -15 5 0 18 7 28 15 11 8 16 15 10 15
-5 0 -18 -7 -28 -15z"/>
<path d="M3433 965 c0 -7 6 -11 14 -8 9 4 11 0 7 -11 -3 -9 -4 -16 -1 -16 15
0 14 31 -2 39 -13 7 -18 6 -18 -4z"/>
<path d="M1625 949 c-4 -6 -5 -12 -2 -15 2 -3 7 2 10 11 7 17 1 20 -8 4z"/>
<path d="M2521 952 c-22 -8 -46 -30 -413 -394 -192 -191 -347 -352 -343 -358
3 -6 11 -8 16 -5 5 4 9 1 9 -4 0 -6 3 -10 8 -9 4 1 22 -2 40 -6 21 -5 30 -12
25 -19 -4 -8 -1 -8 9 1 13 10 18 9 29 -5 13 -17 13 -17 -6 -3 -19 14 -19 14
-6 -3 10 -13 17 -15 27 -6 9 7 14 7 14 1 0 -20 -26 -32 -40 -19 -10 9 -11 9
-6 0 4 -7 -2 -17 -14 -23 -11 -6 -18 -15 -15 -20 3 -4 0 -11 -5 -13 -7 -4 -6
-5 1 -3 6 1 9 5 7 8 -3 8 35 39 40 33 2 -2 -4 -17 -14 -34 -13 -21 -15 -34 -8
-41 7 -7 10 -4 10 12 -1 17 5 23 22 24 13 1 21 -4 19 -10 -2 -6 -12 -10 -22
-8 -10 2 -14 -1 -10 -8 3 -6 14 -9 23 -8 9 2 17 -2 17 -9 0 -6 4 -15 9 -20 5
-5 6 -3 2 5 -9 16 25 13 36 -3 5 -6 8 -6 8 1 0 6 -10 19 -22 30 -12 10 -18 13
-13 5 5 -9 3 -12 -6 -9 -8 3 -13 11 -11 18 1 7 -2 18 -8 25 -7 9 -6 16 7 26
15 12 16 12 10 -3 -6 -18 37 -69 58 -67 5 0 4 3 -2 6 -19 7 -16 19 6 20 14 1
18 -3 14 -13 -3 -9 1 -14 13 -14 16 0 17 2 4 11 -12 8 -11 9 5 7 12 -2 19 -10
17 -20 -1 -9 2 -19 8 -23 6 -4 7 1 3 12 -6 17 -5 17 15 -1 12 -11 22 -15 22
-10 0 6 9 10 20 11 11 1 19 -1 16 -5 -2 -4 9 -7 24 -7 16 -1 26 3 24 7 -3 4
-1 8 5 8 5 0 13 -5 17 -11 4 -8 9 -7 15 2 6 9 12 10 17 4 10 -13 35 -18 27 -5
-9 14 8 13 24 -3 10 -10 11 -8 5 7 -4 12 -4 17 2 13 6 -3 16 -2 24 3 14 8 62
-8 56 -19 -2 -3 8 -6 24 -6 21 -1 26 3 22 15 -5 13 -4 13 12 0 24 -19 46 -22
39 -4 -4 10 0 12 11 8 9 -3 14 -9 12 -13 -2 -3 8 -6 24 -6 21 -1 26 3 22 15
-5 13 -4 13 12 0 24 -19 46 -22 39 -4 -3 8 -2 14 3 13 21 -4 35 2 29 12 -4 6
-13 8 -21 5 -8 -3 -14 -1 -14 4 0 6 30 10 68 9 37 0 77 2 90 5 24 5 25 5 16
-18 -3 -9 -10 -13 -15 -10 -5 3 -6 11 -3 17 4 8 2 7 -7 -1 -12 -11 -12 -14 1
-22 8 -5 18 -6 24 -3 6 4 6 -1 2 -13 -6 -15 -5 -17 5 -7 16 16 33 17 24 3 -8
-13 17 -8 28 5 4 6 10 5 16 -4 6 -9 11 -10 15 -2 4 6 12 11 17 11 6 0 8 -4 5
-8 -2 -4 8 -8 24 -7 15 0 26 3 24 6 -2 4 3 10 12 13 8 3 13 10 9 15 -3 5 -1
12 5 16 13 8 13 -27 0 -43 -7 -9 -7 -9 2 -2 15 12 31 13 24 2 -3 -5 1 -9 9 -9
20 0 19 13 -1 21 -9 3 -14 13 -11 21 4 8 -2 16 -14 20 -11 4 -16 11 -13 18 4
7 -5 1 -19 -12 -15 -14 -27 -20 -27 -15 1 17 25 39 45 41 11 2 32 5 48 7 15 2
27 0 27 -5 0 -6 5 -7 10 -4 6 4 8 10 5 15 -3 5 4 7 15 5 11 -2 20 2 20 8 1 7
7 1 14 -13 8 -14 12 -28 10 -32 -8 -12 -44 -9 -44 3 0 6 6 9 13 6 8 -3 14 0
14 7 0 17 -25 16 -31 -1 -8 -20 4 -42 20 -36 7 3 17 -2 20 -11 3 -9 11 -16 17
-16 7 0 7 4 -1 12 -7 7 -12 17 -12 22 0 6 13 -4 29 -22 28 -30 61 -35 61 -10
0 6 8 4 18 -3 15 -12 16 -12 5 2 -13 16 -8 29 9 29 5 0 6 -5 2 -12 -5 -7 -3
-8 6 -3 10 6 12 4 6 -11 -6 -15 -5 -16 5 -7 10 10 9 16 -4 31 -9 10 -14 22
-10 25 3 4 12 -2 20 -13 8 -11 22 -20 31 -19 13 0 12 3 -5 11 -13 6 -23 17
-23 23 0 7 -8 16 -17 20 -16 6 -15 8 7 20 14 8 21 14 15 14 -5 1 -17 -3 -25
-9 -9 -6 -19 -5 -28 2 -10 9 -12 8 -10 -2 2 -7 -4 -15 -12 -18 -8 -2 -12 -1
-8 3 4 5 3 14 -2 20 -8 9 -1 12 25 9 23 -1 33 1 28 9 -4 6 0 8 10 4 10 -3 17
-2 17 4 0 6 5 7 10 4 6 -3 10 -1 10 5 0 7 6 10 14 7 8 -3 16 -2 18 3 2 5 15
10 30 12 15 2 30 6 33 9 2 3 -35 44 -84 92 -48 48 -86 89 -83 92 3 3 1 5 -5 5
-5 0 -133 123 -284 273 -151 150 -283 277 -294 282 -24 10 -74 14 -94 7z
m-551 -821 c8 -2 23 -4 33 -5 20 0 20 -1 8 -25 -7 -13 -6 -18 4 -18 8 0 17 7
19 14 3 8 1 11 -4 8 -6 -3 -7 1 -3 10 4 12 8 13 13 5 4 -7 12 -10 18 -6 6 3
13 2 17 -3 3 -6 13 -7 23 -4 15 6 15 5 3 -10 -9 -12 -18 -14 -31 -7 -13 7 -21
5 -31 -8 -13 -15 -12 -16 4 -3 10 8 17 9 17 3 0 -18 -20 -24 -35 -12 -8 7 -15
8 -15 3 0 -13 -32 -13 -47 -1 -7 6 -10 15 -7 20 3 5 11 4 17 -4 7 -7 11 -11
10 -9 -2 2 2 10 9 18 9 11 7 12 -7 7 -12 -5 -16 -4 -11 4 3 6 1 14 -5 18 -8 4
-9 3 -5 -4 4 -7 2 -12 -3 -12 -6 0 -11 6 -11 12 0 7 -8 1 -17 -12 -10 -14 -17
-29 -15 -33 1 -5 -2 -6 -8 -2 -6 3 -7 12 -3 18 29 45 38 55 43 49 3 -4 12 -9
20 -11z m1195 -11 c-8 -13 15 -23 28 -12 8 7 16 6 24 -3 15 -16 -40 -87 -62
-79 -21 8 -8 24 13 18 14 -5 14 -4 3 4 -8 6 -19 8 -26 6 -6 -3 -17 2 -24 9 -9
12 -8 16 5 21 12 5 15 2 10 -11 -6 -17 -5 -17 8 0 15 19 27 23 24 6 -5 -22 21
-20 32 3 10 21 10 21 -3 6 -17 -21 -28 -23 -24 -5 1 6 -5 11 -14 11 -11 -1
-16 6 -15 21 0 13 6 21 13 18 7 -3 11 -9 8 -13z m-44 -10 c6 0 7 5 3 12 -4 7
-3 8 4 4 12 -7 5 -36 -9 -36 -5 0 -9 2 -9 4 0 2 -2 10 -3 18 -2 7 -2 10 0 6 3
-5 9 -8 14 -8z m-939 -16 c18 -3 44 -6 58 -7 14 -1 31 -6 38 -10 7 -5 12 -3
12 3 0 6 5 8 11 4 8 -4 7 -9 -2 -15 -7 -4 -17 -5 -23 -2 -5 3 -6 1 -2 -5 4 -7
2 -12 -3 -12 -6 0 -11 -5 -11 -11 0 -8 5 -7 15 1 9 7 18 10 22 6 11 -10 -3
-17 -42 -20 -52 -5 -71 2 -72 25 -1 11 2 17 6 15 4 -3 13 0 21 5 11 7 8 8 -12
5 -14 -2 -29 -2 -32 2 -11 10 -45 9 -39 -1 3 -6 1 -7 -6 -3 -6 4 -14 1 -17 -8
-3 -9 -12 -12 -22 -8 -14 5 -15 4 -2 -10 9 -10 17 -12 21 -6 4 6 9 6 14 -2 5
-8 11 -7 24 4 19 17 34 10 39 -17 3 -15 0 -17 -16 -8 -11 6 -30 8 -44 6 -28
-5 -65 26 -53 45 3 5 10 8 13 6 4 -2 19 4 32 14 13 10 28 16 32 14 4 -3 22 -7
40 -10z m708 -14 c0 -7 -46 -7 -54 0 -2 3 9 6 25 6 16 1 29 -2 29 -6z m20 -6
c-11 -12 -10 -18 5 -32 10 -9 15 -12 12 -6 -4 7 0 17 8 24 11 9 14 8 12 -9 -1
-18 -47 -50 -47 -32 0 4 -24 8 -54 7 -53 0 -76 7 -63 20 4 4 12 2 20 -4 10 -8
13 -7 13 7 0 11 -6 17 -13 14 -7 -3 -13 0 -13 5 0 6 10 9 23 6 51 -12 79 -11
84 2 3 8 10 14 15 14 6 0 5 -7 -2 -16z m-744 -6 c4 -6 3 -8 -3 -5 -6 4 -16 0
-23 -8 -13 -15 -30 -12 -30 6 0 6 4 8 8 5 4 -2 14 -1 22 5 19 11 17 11 26 -3z
m240 -13 c-2 -5 -10 -9 -17 -7 -8 2 -10 0 -6 -4 11 -11 38 -14 31 -3 -7 12 37
28 56 20 14 -6 37 -7 50 -1 17 6 50 5 50 -2 0 -5 4 -7 9 -4 11 7 20 -14 14
-32 -4 -10 -8 -10 -19 -1 -8 6 -11 15 -8 20 3 5 1 9 -5 9 -5 0 -12 -9 -16 -20
-6 -19 -8 -19 -36 -5 -26 14 -30 14 -35 0 -5 -12 -10 -13 -20 -4 -8 6 -11 15
-8 20 3 5 1 9 -5 9 -5 0 -12 -9 -16 -20 -5 -16 -10 -18 -31 -8 -13 6 -24 18
-25 27 0 11 -2 12 -6 3 -2 -6 -9 -9 -14 -6 -6 3 -16 1 -23 -5 -10 -9 -15 -8
-19 3 -4 10 2 16 16 18 43 7 87 3 83 -7z"/>
<path d="M2230 75 c0 -7 30 -13 34 -7 3 4 -4 9 -15 9 -10 1 -19 0 -19 -2z"/>
<path d="M2211 50 c-10 -5 -9 -8 2 -13 7 -3 19 -2 26 3 10 5 9 8 -2 13 -7 3
-19 2 -26 -3z"/>
<path d="M2521 47 c-8 -10 -7 -14 2 -14 8 0 14 6 14 14 0 7 -1 13 -2 13 -2 0
-8 -6 -14 -13z"/>
<path d="M1637 927 c-3 -8 1 -14 8 -14 7 0 11 6 8 14 -3 7 -6 13 -8 13 -2 0
-5 -6 -8 -13z"/>
<path d="M3594 915 c11 -8 15 -15 9 -15 -6 0 -14 -8 -18 -17 -5 -15 -4 -16 6
-5 18 17 25 15 26 -8 1 -11 -2 -18 -7 -15 -11 7 -40 -5 -40 -16 0 -5 6 -8 13
-6 7 1 12 -7 11 -19 -1 -11 5 -21 12 -21 8 0 14 4 14 9 0 4 -5 8 -12 8 -6 0
-8 3 -5 7 4 3 2 12 -4 20 -8 9 -8 13 -1 13 6 0 17 -9 25 -20 8 -12 21 -18 29
-15 11 5 14 -1 13 -22 -2 -15 -6 -37 -9 -48 -6 -16 -4 -15 6 3 8 12 17 20 20
16 4 -3 6 3 5 14 0 11 -5 18 -9 16 -4 -3 -8 0 -8 7 0 6 8 9 20 6 17 -4 18 -2
9 14 -7 13 -17 18 -28 14 -18 -5 -44 15 -39 31 4 15 -21 51 -39 58 -15 5 -15
4 1 -9z m47 -82 c13 -16 12 -17 -3 -4 -10 7 -18 15 -18 17 0 8 8 3 21 -13z"/>
<path d="M3536 901 c-14 -15 -15 -21 -4 -27 7 -4 10 -4 6 1 -7 7 14 35 26 35
10 0 -7 -35 -22 -47 -17 -14 -5 -18 14 -5 16 10 22 54 8 59 -6 2 -18 -5 -28
-16z"/>
<path d="M3493 889 c-2 -23 3 -25 10 -4 4 8 3 16 -1 19 -4 3 -9 -4 -9 -15z"/>
<path d="M1546 842 l-19 -27 24 22 c12 12 21 24 18 27 -2 2 -13 -8 -23 -22z"/>
<path d="M1497 813 c-10 -10 -8 -23 4 -23 5 0 7 5 3 12 -5 8 -2 9 10 5 10 -4
15 -3 11 3 -7 12 -19 13 -28 3z"/>
<path d="M1406 803 c-10 -11 4 -22 20 -16 9 3 20 0 26 -8 8 -12 9 -12 6 0 -4
15 -43 33 -52 24z"/>
<path d="M3633 785 c0 -8 4 -15 9 -15 4 0 8 4 8 9 0 6 -4 12 -8 15 -5 3 -9 -1
-9 -9z"/>
<path d="M1470 769 c0 -5 5 -7 10 -4 6 3 10 8 10 11 0 2 -4 4 -10 4 -5 0 -10
-5 -10 -11z"/>
<path d="M1420 758 c0 -6 3 -8 6 -5 4 3 16 2 28 -4 20 -10 20 -10 2 5 -24 19
-36 20 -36 4z"/>
<path d="M1420 736 c0 -2 7 -7 16 -10 8 -3 12 -2 9 4 -6 10 -25 14 -25 6z"/>
<path d="M3674 725 c1 -8 6 -18 11 -22 4 -5 5 -2 0 6 -6 11 -4 13 8 8 23 -9
21 0 -2 13 -15 7 -19 7 -17 -5z"/>
<path d="M3713 702 c-9 -6 -7 -11 7 -20 12 -7 20 -8 20 -2 0 5 -5 10 -11 10
-5 0 -7 5 -4 10 7 12 4 12 -12 2z"/>
<path d="M3753 647 c0 -8 6 -14 14 -14 9 0 10 4 2 14 -6 7 -12 13 -14 13 -1 0
-2 -6 -2 -13z"/>
<path d="M1355 639 c-4 -6 -4 -13 -1 -16 3 -4 6 -1 6 6 0 8 6 11 16 7 8 -3 12
-2 9 4 -8 13 -22 13 -30 -1z"/>
<path d="M1199 597 c-10 -53 -20 -67 -39 -57 -16 8 -18 6 -15 -15 2 -22 -1
-25 -19 -19 -11 4 -19 5 -16 3 3 -2 15 -13 28 -24 20 -17 22 -17 16 -2 -3 10
-3 17 2 16 21 -4 33 2 28 14 -3 8 4 13 16 14 11 1 18 -2 15 -8 -4 -5 -1 -9 5
-9 7 0 10 6 7 13 -2 6 -12 11 -21 11 -9 -1 -15 3 -13 10 3 6 9 10 14 9 11 -2
11 33 0 43 -4 4 -8 4 -8 1z m-29 -83 c0 -8 -4 -12 -10 -9 -5 3 -10 10 -10 16
0 5 5 9 10 9 6 0 10 -7 10 -16z"/>
<path d="M1230 561 c0 -24 16 -36 26 -20 5 8 3 9 -6 4 -10 -6 -12 -3 -8 13 4
12 2 22 -3 22 -5 0 -9 -9 -9 -19z"/>
<path d="M1260 571 c0 -6 4 -13 10 -16 6 -3 7 1 4 9 -7 18 -14 21 -14 7z"/>
<path d="M3890 500 c0 -5 5 -10 11 -10 5 0 7 5 4 10 -3 6 -8 10 -11 10 -2 0
-4 -4 -4 -10z"/>
<path d="M1184 486 c-10 -8 -16 -18 -11 -22 4 -4 7 -2 7 5 0 7 4 10 9 7 5 -3
11 1 15 9 7 19 5 19 -20 1z"/>
<path d="M1110 483 c0 -7 3 -13 8 -13 4 0 14 -12 23 -26 14 -24 17 -24 23 -8
4 10 4 15 0 12 -3 -4 -17 5 -30 20 -13 15 -24 21 -24 15z"/>
<path d="M1077 473 c-3 -5 -2 -15 4 -23 14 -23 10 -37 -5 -17 -12 16 -13 14
-11 -15 4 -48 4 -48 16 -48 8 0 7 5 -2 16 -11 13 -10 17 3 25 10 6 16 19 14
34 -3 28 -11 40 -19 28z"/>
<path d="M3946 463 c-6 -14 -5 -15 5 -6 7 7 10 15 7 18 -3 3 -9 -2 -12 -12z"/>
<path d="M1113 441 c1 -11 7 -23 14 -26 11 -4 11 0 2 18 -16 31 -18 32 -16 8z"/>
<path d="M3965 440 c3 -5 8 -10 11 -10 2 0 4 5 4 10 0 6 -5 10 -11 10 -5 0 -7
-4 -4 -10z"/>
<path d="M3993 415 c0 -8 4 -12 9 -9 4 3 8 9 8 15 0 5 -4 9 -8 9 -5 0 -9 -7
-9 -15z"/>
<path d="M1096 402 c-2 -4 0 -14 6 -22 8 -12 9 -12 5 2 -3 9 -1 19 6 22 9 3 9
5 0 5 -6 1 -14 -3 -17 -7z"/>
<path d="M4017 396 c-4 -10 -1 -13 9 -9 15 6 19 23 5 23 -5 0 -11 -7 -14 -14z"/>
<path d="M1000 321 c0 -5 7 -11 14 -14 10 -4 13 -1 9 9 -6 15 -23 19 -23 5z"/>
<path d="M950 290 c0 -5 5 -10 11 -10 5 0 7 5 4 10 -3 6 -8 10 -11 10 -2 0 -4
-4 -4 -10z"/>
<path d="M1000 280 c-9 -6 -10 -10 -3 -10 6 0 15 5 18 10 8 12 4 12 -15 0z"/>
<path d="M4125 280 c3 -5 8 -10 11 -10 2 0 4 5 4 10 0 6 -5 10 -11 10 -5 0 -7
-4 -4 -10z"/>
<path d="M943 250 c-8 -12 -9 -21 -3 -25 6 -4 9 -1 8 7 -2 7 3 12 10 10 8 -1
11 2 8 7 -4 5 0 12 6 14 9 4 8 6 -2 6 -8 1 -21 -8 -27 -19z"/>
<path d="M4170 251 c0 -10 19 -25 25 -20 1 2 -3 10 -11 17 -8 7 -14 8 -14 3z"/>
<path d="M250 200 c0 -5 5 -10 11 -10 5 0 7 5 4 10 -3 6 -8 10 -11 10 -2 0 -4
-4 -4 -10z"/>
<path d="M4200 200 c8 -5 20 -10 25 -10 6 0 3 5 -5 10 -8 5 -19 10 -25 10 -5
0 -3 -5 5 -10z"/>
<path d="M881 157 c-13 -21 -12 -21 5 -5 10 10 16 20 13 22 -3 3 -11 -5 -18
-17z"/>
<path d="M840 156 c0 -8 4 -17 8 -20 4 -2 8 4 8 15 0 10 -4 19 -8 19 -4 0 -8
-6 -8 -14z"/>
<path d="M237 139 c7 -7 15 -10 18 -7 3 3 -2 9 -12 12 -14 6 -15 5 -6 -5z"/>
<path d="M4886 142 c-3 -5 1 -9 9 -9 8 0 12 4 9 9 -3 4 -7 8 -9 8 -2 0 -6 -4
-9 -8z"/>
<path d="M1861 124 c0 -11 3 -14 6 -6 3 7 2 16 -1 19 -3 4 -6 -2 -5 -13z"/>
<path d="M4290 125 c0 -8 4 -15 10 -15 5 0 7 7 4 15 -4 8 -8 15 -10 15 -2 0
-4 -7 -4 -15z"/>
<path d="M820 119 c0 -5 5 -7 10 -4 6 3 10 8 10 11 0 2 -4 4 -10 4 -5 0 -10
-5 -10 -11z"/>
<path d="M3260 103 c8 -13 20 -19 29 -15 13 5 13 6 0 10 -7 3 -20 10 -28 16
-12 9 -12 8 -1 -11z"/>
<path d="M241 96 c-8 -10 -9 -16 -1 -21 6 -4 9 -1 8 7 -2 7 3 12 10 10 8 -1
11 2 7 8 -8 13 -10 13 -24 -4z"/>
<path d="M344 99 c-4 -7 -3 -9 4 -5 6 3 13 -2 15 -11 4 -16 5 -16 6 -1 1 21
-15 32 -25 17z"/>
<path d="M510 100 c0 -6 4 -9 9 -6 5 4 12 1 14 -4 3 -6 4 -5 3 2 -3 15 -26 23
-26 8z"/>
<path d="M772 105 c4 -4 0 -13 -8 -20 -15 -11 -15 -12 -1 -12 20 0 30 24 14
33 -7 4 -9 4 -5 -1z"/>
<path d="M4315 100 c-3 -5 -1 -10 4 -10 6 0 11 5 11 10 0 6 -2 10 -4 10 -3 0
-8 -4 -11 -10z"/>
<path d="M4366 97 c3 -10 9 -15 12 -12 3 3 0 11 -7 18 -10 9 -11 8 -5 -6z"/>
<path d="M4664 99 c-4 -7 -3 -9 4 -5 6 3 13 -2 15 -11 4 -16 5 -16 6 -1 1 21
-15 32 -25 17z"/>
<path d="M286 87 c-16 -12 -16 -13 2 -13 10 0 19 6 19 13 0 7 -1 13 -2 13 -1
0 -9 -6 -19 -13z"/>
<path d="M610 89 c0 -5 -6 -7 -12 -3 -7 4 -9 3 -5 -1 13 -15 36 -14 30 1 -6
17 -13 18 -13 3z"/>
<path d="M2995 90 c-4 -6 -12 -7 -18 -3 -7 4 -6 0 2 -10 17 -21 27 -22 34 -2
7 17 -9 30 -18 15z"/>
<path d="M4450 89 c0 -5 -6 -7 -12 -3 -7 4 -9 3 -5 -1 13 -15 36 -14 30 1 -6
17 -13 18 -13 3z"/>
<path d="M450 82 c0 -4 10 -9 22 -9 18 -2 20 0 8 7 -18 12 -30 13 -30 2z"/>
<path d="M690 82 c0 -5 7 -9 15 -9 8 0 12 4 9 9 -3 4 -9 8 -15 8 -5 0 -9 -4
-9 -8z"/>
<path d="M4770 79 c0 -4 10 -6 21 -4 32 6 34 13 4 13 -14 0 -25 -4 -25 -9z"/>
<path d="M3029 74 c0 -5 -2 -21 -4 -36 -2 -15 1 -30 6 -33 5 -3 6 1 3 9 -4 11
0 16 10 16 9 0 16 3 16 8 -1 11 -30 47 -31 36z"/>
<path d="M1816 38 c3 -5 10 -6 15 -3 13 9 11 12 -6 12 -8 0 -12 -4 -9 -9z"/>
<path d="M2655 29 c4 -12 3 -19 -2 -16 -5 3 -15 2 -22 -3 -9 -5 -3 -7 17 -7
17 1 28 5 26 9 -3 5 -1 8 5 8 5 0 13 -5 17 -11 5 -8 9 -8 14 2 12 21 7 33 -15
37 -20 3 -20 3 0 -14 18 -14 18 -15 2 -10 -10 3 -23 6 -28 6 -6 0 -7 5 -4 10
3 6 1 10 -5 10 -7 0 -9 -8 -5 -21z"/>
<path d="M2995 40 c3 -5 8 -10 11 -10 2 0 4 5 4 10 0 6 -5 10 -11 10 -5 0 -7
-4 -4 -10z"/>
<path d="M3070 40 c0 -5 5 -10 11 -10 5 0 7 5 4 10 -3 6 -8 10 -11 10 -2 0 -4
-4 -4 -10z"/>
<path d="M3272 31 c-11 -7 -11 -9 0 -14 9 -3 15 1 15 9 0 8 -1 14 -1 14 -1 0
-7 -4 -14 -9z"/>
<path d="M2010 9 c0 -5 5 -7 10 -4 6 3 10 8 10 11 0 2 -4 4 -10 4 -5 0 -10 -5
-10 -11z"/>
<path d="M2331 10 c-9 -5 -4 -7 13 -7 29 0 32 2 13 10 -8 3 -20 2 -26 -3z"/>
<path d="M2726 12 c-3 -4 4 -9 15 -9 23 -2 25 3 4 10 -8 4 -16 3 -19 -1z"/>
<path d="M3055 10 c3 -5 8 -10 11 -10 2 0 4 5 4 10 0 6 -5 10 -11 10 -5 0 -7
-4 -4 -10z"/>
<path d="M3085 10 c-3 -6 1 -7 9 -4 18 7 21 14 7 14 -6 0 -13 -4 -16 -10z"/>
</g>
</svg>
